<?xml version="1.0" encoding="utf-8"?>
<!-- Generator: Adobe Illustrator 28.0.0, SVG Export Plug-In . SVG Version: 6.00 Build 0)  -->
<svg version="1.1" id="Capa_1" xmlns="http://www.w3.org/2000/svg" xmlns:xlink="http://www.w3.org/1999/xlink" x="0px" y="0px"
	 viewBox="0 0 32 32" style="enable-background:new 0 0 32 32;" xml:space="preserve">
<g>
	<g>
		<path d="M2.4,9.1c0,4.8,0.1,9.5,0.3,14.3C2.7,25,2,28.7,3.4,29.8c0.1,0.1,0.2,0,0.2-0.1c0.1-0.1,0.1-0.2,0.2-0.2
			c0.1-0.1,0.1-0.4,0-0.5c-1-2.2-0.4-6.8-0.4-9.3c-0.1-3.5-0.2-7-0.3-10.5C3.1,8,2.4,8,2.4,9.1L2.4,9.1z"/>
	</g>
</g>
<g>
	<g>
		<path d="M21.4,5.4c-0.1-1,0,0.4,0,0.6c0,0.3,0,0.7,0.1,1c0.1,0.5,0.1,1.3,0.5,1.7c0.1,0.1,0.2,0.1,0.2,0c0.6-0.8,0.9-0.9,1.8-0.9
			c0.4,0,0.9,0,1.3,0c0.1,0,0.1-0.6,0-0.6c-0.2,0-2.8-0.1-2.8,0.1c0,0.4-0.1,0.7-0.1,1.1c0.1-0.5,0.2-1,0.2-1.5c0-0.3,0-0.5,0-0.6
			c-0.1,0.2-0.1,0.5-0.2,0.7c0,0,0-0.1,0.1-0.1c0.3-0.5,0.3-1.4,0.3-1.9c0-0.6,0-1.6-0.5-2C21.4,1.9,21.3,5.1,21.4,5.4L21.4,5.4z"/>
	</g>
</g>
<g>
	<g>
		<path d="M26.6,6.6C26.3,6,26.2,5.4,26,4.8c-0.1-0.3-0.2-0.7-0.4-0.9c-0.3-0.2-1.1-0.1-1.5-0.2c-0.6-0.1-1.1-0.2-1.7-0.1
			c-0.2,0-0.2,0.4-0.3,0.5c-0.1,0.4,0,0.8,0.1,1.2c0,0.1,0.1,0.3,0.2,0.3c1.1-0.1,2-0.2,3.1,0c-0.1-0.2-0.2-0.4-0.3-0.6
			c0.1,1.1,0.4,2,0.9,3c0.2,0.3,0.3-0.1,0.4-0.2C26.7,7.5,26.7,7,26.6,6.6L26.6,6.6z"/>
	</g>
</g>
<g>
	<g>
		<path d="M11,13.7c1-2,4.7-2.1,6.6-1.7c0.9,0.2,1.8,0.6,2.5,1.2c1.7,1.6,0.8,4.2-0.9,5.4c-1.4,1-3.7,1.5-5.3,1.1
			c-1.2-0.3-2.2-1-3.1-2C9.2,16,9.6,15,11,13.4c0.1-0.1,0.1-0.6,0-0.7c-3.2-1.1-2.5,4.5-1.7,6c2.3,4.4,7.4,3.8,10.3,0.5
			c1.4-1.7,2.6-3.9,1-5.9c-1.8-2.3-8.2-3.3-9.7-0.3C10.7,13.2,10.9,13.9,11,13.7L11,13.7z"/>
	</g>
</g>
<g>
	<g>
		<path d="M3.8,15.7c1.6,0.5,3.6,0.7,5.4,0.5c0.5-0.1,0.5-2.1-0.1-2.2c-1.7-0.2-3.7,0.1-5.3,0.6C3.6,14.7,3.6,15.6,3.8,15.7
			L3.8,15.7z"/>
	</g>
</g>
<g>
	<g>
		<path d="M21,15.5c1.1,0.6,2.4,0.6,3.6,0.6c1.4,0,2.8,0.1,4.2,0c0.6-0.1,0.5-2.5-0.1-2.6c-1.3-0.2-2.8-0.1-4.2-0.1
			c-1.3,0.1-2.5,0.1-3.6,0.8C20.7,14.4,20.7,15.4,21,15.5L21,15.5z"/>
	</g>
</g>
<g>
	<g>
		<path d="M9.1,14.2C12,10.6,19,10.3,21,15.1c0.2,0.5,0.2-0.5,0.2-0.6c-0.4-2.4-2.8-3.3-4.9-3.9c-2.9-0.7-5.5,0.2-7.3,2.5
			C8.8,13.4,9,14.3,9.1,14.2L9.1,14.2z"/>
	</g>
</g>
<g>
	<g>
		<path d="M2.9,10.1c0.3-10.4,18.9-7.1,25.3-6c0.1,0,0.2-0.7,0-0.7c-3.7-0.7-7.5-1.1-11.3-1.1c-3.4,0-8.1-0.6-11.3,0.2
			C2.1,3.3,2.7,7.2,2.7,10C2.7,10.3,2.9,10.6,2.9,10.1L2.9,10.1z"/>
	</g>
</g>
<g>
	<g>
		<path d="M28.2,3.8c2.4,1.5,0.6,9.2,0.4,11.6c-0.2,3.8-0.5,7.6-0.7,11.4c-0.1,1.8,1.5,3.9,1.8,1.1c0.5-5.6,0.7-11.2,0.3-16.8
			c-0.2-3.1-0.1-6.1-1.6-8.7C28.2,2,27.7,3.5,28.2,3.8L28.2,3.8z"/>
	</g>
</g>
<g>
	<g>
		<path d="M3.6,29.6c8.4,0,16.8,0.2,25.1-0.2c0.4,0,0.3-1.7,0-1.7c-8.3-0.6-16.8-0.2-25.1,0.6C3.2,28.3,3.3,29.6,3.6,29.6L3.6,29.6z
			"/>
	</g>
</g>
</svg>
