<?xml version="1.0" encoding="utf-8"?>
<!-- Generator: Adobe Illustrator 28.0.0, SVG Export Plug-In . SVG Version: 6.00 Build 0)  -->
<svg version="1.1" id="Capa_1" xmlns:serif="http://www.serif.com/"
	 xmlns="http://www.w3.org/2000/svg" xmlns:xlink="http://www.w3.org/1999/xlink" x="0px" y="0px" viewBox="0 0 490 413.3"
	 style="enable-background:new 0 0 490 413.3;" xml:space="preserve">
<style type="text/css">
	.st0{fill:#999999;}
	.st1{fill:#F3CA5C;}
	.st2{fill:#FF735C;}
	.st3{fill:#CEC09B;}
</style>
<g>
	<g id="Capa2_00000026121105768501334490000011281455526867930505_" transform="matrix(1,0,0,0.717178,-154.871,57.4195)">
		<g transform="matrix(0.416203,-0,-0,0.580333,207.58,5.93901)">
			<g transform="matrix(0.999246,0,0,0.998559,0,0)">
				<g>
					<path d="M282.7,355.4c-1.2,3.1,1.1,8-3.1,9c-3.9,0.9-3.7-3.6-4.9-7.2c-0.9,3.1-2.1,5.4-4.8,5.1c-2.7-0.3-0.9-2.9-1.6-4.3
						c-0.8-1.4-0.9-3-3.8-2.7c-3.4,0.4-6.8,0.3-10.5-3c-4.9-4.3-6.1-3.7-7.3-11.5c-0.7-4.7-4.4-8.9-3.4-14.1c0.2-1.1-3.4-9-4.5-10.8
						c-0.2-0.3-0.4-0.6-0.6-0.9c7.4-4-0.2-9.8,1.6-15.1c2.2-6.8-2.4-14.4-5.1-21.3c-1.9-4.6-3.1-8.7-1-13.3c0.2-0.4,0.4-1.2,0.3-1.3
						c-5.5-3.8-3.3-9.3-3.9-14.4c-0.3-2.1-1-4.5,0.1-6.1c2.7-3.9,1.8-8.3,1-11.9c-1.2-5.3-0.7-11-3.5-16.1c-1.4-2.6,0.2-7.4,1.1-8.5
						c4.4-5.7-0.3-7.6-3.3-10.4c2.4-2.2,6.9-3,3.4-8c-1.8-2.6,2.5-4.9,2.7-7.8c0.5-7,0.9-14.4-1.5-20.6c-1.6-4.1-1-8.4,0-10.2
						c2.5-4.3,1.7-6.5-1.8-8.9c-0.8-0.5-1.5-1.2-0.6-2.1c5.4-5.3,2.7-12.4,4-18.6c1.2-5.7-0.7-11.4-3.2-16.7
						c-0.4-0.9-1.6-1.4-1.2-2.8c0.4-1.7,2.3-3.8-0.8-5c0.8,3.8-6.8,2.9-4.4,7c2.4,4.1-1.8,5.2-2.2,7c-1.5,6.9-8.6,10.8-8.8,17.8
						c-0.1,3.9-3.3,7.9,0.2,12c1.2,1.3-1.5,1.1-1.5,2.1c-0.1,2.9-5.8,6.1,0.6,8.6c0.4,0.2,0.8,0.5,1.2,0.7
						c-4.7,7.3,2.2,15.8-2.8,23.6c-4.7,7.4-10.4,11.9-19,12.6c-10.3,0.8-17.4-4.7-22.3-13c-2.2-3.7-4.5-6.4-8.7-8.4
						c-5.3-2.5-10.1-6.4-11.6-12.8c0-0.2-0.2-0.4-0.3-0.6c-2.4-3.9-7.7-1.4-10-3.9c-2.1-2.3,1.9-8.1-3.9-9.3c-2.5-0.5-2.9-2.8-3-4
						c-0.8-10.5-8.6-16.6-14.8-23.6c-1.2-1.3-2-2.6-3-4c-2.3-3.6-1.5-11-9.4-8.2c-0.6,0.2-1.5-0.2-1.2-1c2.7-7.4-6.1-6.1-7.9-10.2
						c-0.8-1.9-2.6,1.1-2.5,1.3c4.5,4.4-0.4,8.3-0.5,12.4c-0.2,6.8,0.4,14,2.9,20c1.5,3.6,1.2,7.9,0.5,9.3c-2.6,5-2,8.1,2.6,10.9
						c0.3,0.2,0.4,1.1,0.4,1.1c-5.7,2.7-0.7,7.5-2.2,10.8c-3.7,8.7-1.1,17.2,1,25.5c1.1,4.5,1,8.2-0.4,12.3
						c-0.2,0.6-0.7,1.8-0.6,1.8c6.7,3.4,0.8,9.8,3.4,14.2c2,3.4-2.5,5.5-1.9,8.7c1.2,6.7,1.3,13.8,3.5,20.2
						c1.6,4.5,0.7,8.2-0.2,12.3c-0.1,0.6-0.8,1.6-0.6,1.8c3.3,3.8,4,7.5,2.3,12.6c-0.5,1.6,0.3,4.8-0.6,7.7
						c-1.9,6.2,0.2,12.4,1.4,18.5c0.7,3.4,3.1,6.2,2.1,10.3c-0.7,2.8,1.6,6.6,4.9,6.8c4.5,0.3,4.5,2.2,3.2,5.2
						c-1.3,3.3-1,7.4-4.9,9.3c-0.9,0.4-1.3,0.9-1.3,2c-0.3,8.9-8.4,17.7-17.1,18.6c-3.7,0.4-7-1.1-10.5-2.2
						c-10.8-3.3-13.1-12.5-12.9-21.2c0.2-8.4-4.2-15.6-3.5-23.7c0.6-6.4-0.1-12.9,0.1-19.2c0.2-7.7-1.3-15.9-0.8-23.8
						c0.3-5.4-5.2-8.9-2.8-14.9c2.3-5.8-4.2-12.5,1-18.5c-5.5-10.2,1.4-22.4-5.2-32.5c-1.7-2.6-0.4-7.4,0-7.9
						c3.7-5.6-4.2-12.1,1.6-17.1c-5-10.3,2.3-22.1-4-32.1c-1.7-2.7-0.3-5.9,0.2-7.5c1.7-5.8-2.7-11.5,0.8-17.2
						c1-1.6,0.3-5.8-0.5-7.8c-0.9-2.6-0.6-5-0.2-7c1.7-8.5-4.2-16.1-3.2-24.1c0.9-7.2-6.2-14.4,0.4-21.2c-3.5-5.5,0.5-10.7,1.6-15.5
						c2.7-11.3,17.6-17.3,28.5-12.9c5.1,2.1,10.2,4.6,12.3,10.1c2.8,7.3,11.8,8.3,14.7,15.4c2.5,6.1,8.9,9.1,12.1,15.2
						c2.1,4,8.1,7.1,12,10.9c4.2,4.1,7.5,8.9,11.3,13.2c3.2,3.6,8.3,5.4,9.5,11c1.3,6.4,7.4,10.3,8.9,17.4c0.8,3.7,5.3,8.7,9.5,11.8
						c3.1,2.3,4-1,4.4-2.6c3.1-13.2,9.6-25,15.6-37c2.3-4.6,1-10.4,5.6-14.1c5.3-4.4,5.1-12.3,11.7-16.7c3.2-2.2,5-9,7.5-13.7
						c3-5.8,7.6-10.1,12.3-14.3c6-5.4,14.6-6.4,21.4-0.9c6.9,5.5,13.7,11.4,14.4,22.1c0.3,5,2.6,11.4,2.4,15.8
						c-0.5,10.6,3.3,20.7,2.3,31.1c-0.5,4.9,4.8,7.5,3.1,13.1c-1.9,6.2,1.2,13-0.4,20.1c-0.9,4,1.1,10.2,0.3,15.2
						c-1.4,8.4,2.2,16.5,0.7,24.6c-1.1,6,2.8,12.7-2.3,18.2c4.1,10.6-3.8,21.9,2.1,32.3c1.4,2.5-2.5,5.1,0.2,7.6
						c-4.7,4.8,3.4,11.2-2.1,15.9c4.5,9.4-1,20.7,6,29.7c2,2.6,2.2,7.8,1.6,9.2c-2.6,5.9,5.9,11,0.7,16.4c4.2,7.1,3.9,15.2,4.7,22.9
						c0.7,6.2,5.9,11,4.6,17.6c-1.5,7.6,2.1,14.6,2.3,22c0.1,2,1.4,5.4-1.7,5.8C283.8,361.1,283.3,357.9,282.7,355.4z"/>
					<path d="M631.4,273.5c0.8-14.3,3.7-28,1.4-40.8c-1.6-9.2-1.1-18.3-0.7-26.8c0.5-9.5-0.9-19.4,1.9-28.8
						c1.6-5.6-4.4-9.8-1.9-15.8c2.4-5.9-2.8-13,1.7-19.1c-4.4-10.7,2-22.7-4.5-33.2c-1.5-2.5-0.7-7.2-0.2-8c3.1-5.5-5-10.9,0.2-15.9
						c-6.5-9.9-2.8-22.7-9.7-32.6c-7.8-11.2,2.1-35.2,15.4-38c6.5-1.4,12.9-3.3,19.7-2.2c2.7,0.5,4.9,1,2.1,4
						c-1,1.1-1.3,1.7,0.2,2.4c8.4,3.7,3.3,5.4-1.2,7.1c1,2.7,4.6,4.8,1.4,8.4c-2,2.2,1.2,3.5,1.8,5.1c1.7,4.7,3.8,9,1.4,14.1
						c-0.2,0.4-0.2,1.2-0.1,1.3c6.3,2.9,3.3,9.4,5.4,13.9c2.2,4.8-1.2,9.9,0.6,15c2,5.9,1.7,12.6,4.4,18c2,4.1,1.7,9.6,0.7,11
						c-4.6,6.5,0.9,8.1,4.3,11c-3.3,2.5-6.1,4.5-2.7,9.2c1.9,2.6-2.2,5.1-2.3,8c-0.3,7.5,0.4,15,2.2,22.2c0.6,2.4,0.6,4.3,0.6,6.7
						c-0.1,4.8-4.9,10.6,2.1,14.4c0.2,0.1,0.2,0.4,0.3,0.6c-5.3,2.8-1.4,8.2-3.1,11.6c-4.5,9.2-1.9,18.3-0.1,27
						c1,4.7-0.6,8.2-1.1,12.3c-0.1,0.8-1.1,2.2-1,2.3c6.6,4.2,0.4,10.2,2.2,15.1c1.3,3.7-2.5,6.4-2.5,10.2
						c-0.1,7.8,0.8,15.4,0.7,23.2c-0.1,5.7-1,10.6-4.7,14.9c-2.2,2.5-0.8,5.1,0.2,7.6c1.2,2.9,1.4,5.1-2.5,6.6
						c-5.7,2.2-6.3,8.9-10.2,13c-6.2,6.4-22.2,8.3-28.5,1.9c-7.4-7.5-14.4-15.2-19.7-24.7c-2.7-4.9-8.2-8.4-10.4-14.3
						c-0.6-1.5-1.4-2.6-0.8-4.3c0.2-0.8,0.1-2.3-0.3-2.5c-5.1-2.5-6.1-7-8.3-11.7c-1.8-3.9-1.9-7.7-3.3-11.4
						c-2.8-7.7-6.9-14.8-11.2-21.8c-2.4-4-3.8-8.1-3.3-12.7c0.1-0.7,0.2-1.9,0.2-1.9c-8.3-1.8-3.5-10.1-7.1-14.1
						c-2.7-3,0.6-6.3-0.5-9.7c-2.3-7-4.8-13.9-8.8-19.9c-2.8-4.1-3-8.2-2.9-12.7c0-0.4,0.4-1.2,0.3-1.3c-5.1-3.2-5.6-8.4-6.3-13.6
						c-0.1-0.9-1.7-2.4-1.5-3.9c1.5-10.2-5-17.6-9.3-25.6c-1.6-3-3.5-1.1-4.7,1.3c-4.2,7.8-1.5,15.6,0.8,23
						c1.8,5.8,4.1,11.2,1.4,17.3c-2,4.7,3.4,4.5,5.2,7.5c-1.8,2.4-5.4,5.4-0.9,9c0.3,0.3,0.2,1.3,0,2c-2.7,10.3,0.8,19.3,5.7,28.3
						c1.4,2.6,0.6,6.4,0.7,9.6c0,0.8-1.1,2.2-0.9,2.3c4.8,3.2,4.7,8,5.2,12.9c0.1,1.3,1.3,2.9,1,4.7c-0.8,3.7,0,6.9,2.3,10.1
						c2.7,3.8,0.5,8.7-4,9.8c-2.5,0.6-1,4.7-3.4,4.7c-8-0.3-13.9,7.4-22.1,5.9c-2.4-0.4-5.1,3.1-6.8,0.1c-1.6-2.9-3.7-7.3-2.6-9.5
						c2.6-5.3-1.8-9-2.5-13.2c-0.7-4.5-2.4-9.5-3.8-14.2c-1.2-4.3-0.2-9.3-4.7-12.6c-2.7-2-1.3-6.2-1-8c1.1-6.4-4.7-11.9-1.6-18.6
						c0.8-1.8-1-5.4-1.7-8c-1.3-5.1-2.6-10.3-1.8-15.1c1.3-6.8-5.3-11.3-3.5-18.3c1.6-6.5-1.1-13.4-0.8-20.5
						c0.3-7.6-1.2-15.9-1-23.9c0.2-6.2-4.8-11.6-2.8-17.5c2.3-6.6-5-13.5,1.2-19.6c-4.4-5.4,0-11.3,1.2-15.7
						c2.6-9.4,9.1-17.5,18.7-22.2c8.4-4.1,16.5-4.9,24,2c3.5,3.2,9.5,1.2,12.3,6.4c1.3,2.3,3.6,5.1,4.4,7.1
						c2.8,7.1,10.6,12.2,9.3,21c-0.5,3.1,2.5,4.1,3.6,6.3c4.2,8.9,3.2,19.8,11,27.4c2.4,2.3,3.8,7.2,3.4,9.4
						c-1.1,6.4,8.3,10,3.7,16.6c5.5,7.1,6.8,15.7,8.5,24c1.2,5.7,7.4,8.6,6.9,15.1c-0.5,6.6,6.8,11.8,4,19c8,9.1,4.2,23.1,13.6,31.6
						c1.6,1.4,0.9,3.4,1.2,5.1c1.4,6.8,4,13.7,6.6,19.5C621.3,255,625.5,264.2,631.4,273.5z"/>
					<path d="M875.8,32.1c4.3,3.4,3.7,2.9,1.2,6.7c-1.3,2-0.9,6.3,0.4,8.5c1.4,2.5,2.1,4.2,0.7,6.7c-0.2,0.3-0.2,1.2,0,1.3
						c6.9,3.2,3.3,10.6,6.1,15.3c2,3.5-0.9,6.5-0.3,9.8c1.3,8.2,2.9,16.4,5.9,23.9c1.5,3.6,0.6,7.1,0,9.6c-1.2,4.8-2.2,8.5,3,11.2
						c0.3,0.2,0.4,0.8,0.6,1.2c-7.8,2.9-1.6,9.7-3.9,14.8c-3.4,7.2-0.6,16.2,1.7,23.9c1.5,4.9-0.2,8.6-0.9,12.9
						c-0.1,0.8-1.4,2-1.2,2.2c3.5,4.2,4,8,1.2,13.4c-0.8,1.5-0.3,5.6-1.5,8.8c-1.6,4-0.8,8.8-1.3,12.9c-1,9.1,3.6,19.5-4.7,27.3
						c-0.2,0.1-0.3,0.5-0.3,0.6c4.4,6.2-1.7,10.9-2.3,16.4c-0.3,2.5-1.1,4.3-2.6,5.8c-4.2,4.3-5.2,10.1-7.8,15.1
						c-4.9,9.4-6.2,21.6-18.3,26.5c-4.5,1.8-1.5,8.2-4.4,10.6c-2.7,2.2-8.3-0.6-10,4.8c-0.4,1.3-1,2.2-2.6,2.8
						c-11,4-21.7,9.9-33,11.5c-6.1,0.9-14.5,0.1-20.8-3.8c-3.8-2.3-9.5-0.1-12-5.5c-2.2-4.6-8.4-5.9-9.2-12.3
						c-0.6-4.6-8.3-1.6-9.8-4.9c-1.3-3,2.8-7.9-3.4-9.9c-1-0.3-2.2-2.8-2-3.9c1-5-1.8-9.1-4.1-12.5c-3.7-5.6-5.9-12-10.6-17.1
						c-2.3-2.5-3.6-7.4-2.9-10.5c1.1-4.4,0.2-6.3-3.7-7.7c-0.8-0.3-1.4-1-2.2-1.6c4.4-4.9-1.6-9.4-0.6-14.1
						c2.1-10.1-2.1-19.2-6.1-27.6c-1.9-4.1-1.4-9.1-0.7-10.5c3.3-6.4-1.6-7.4-5.2-10.2c2.9-2.8,4.5-5.2,1.7-9.9
						c-1.8-3,2.4-8.1,1-12.8c-1.8-6.1-2.1-12.5-5.4-18.4c-1.5-2.6,0.1-7,0.7-10.6c0.2-1,1.4-2.2,0.6-3c-3.4-3.4-6.3-6.7-1.7-11.2
						c-5.5-4.2,0.3-9-0.6-13.6c-1.4-6.6-1.2-14-4.2-19.6c-2.4-4.4-0.1-7.7-0.5-11.4c-0.4-3.5,4.5-7.7-2.2-10.2
						c-0.5-0.2,2.7-1.1,2.4-4.7c-0.5-6.1-6.1-9.4-5.7-15.2c0.1-1.3-0.5-3.6,0.6-3.6c4.2,0.2,4.1-4.6,5.8-5.1
						c7.5-2.5,12.3-10.5,20.7-10.3c2.5,0,4-5.2,6.6-1.3c2.3,3.5,5,7.1,4.4,11.8c-0.1,0.9-0.5,2.1-0.1,2.5c8.5,8.6,8.5,19.5,7,30
						c-0.9,6.2,3.7,11,2.3,17c-1.5,6.1,4.1,12.4-0.1,18.7c5.6,10.3-0.1,22.8,6.4,32.9c1.8,2.8,1.3,7.7,0.6,9.3
						c-2.4,5.8,5.2,11.3-0.3,16.7c-0.8,0.8,1.4,3.5,2,5.3c2.8,8.9-1.3,19.1,5.3,27.3c1.6,2.1,1.5,7.1,1,8c-3.3,6,5.7,11,0.7,16.6
						c6.2,8.9,2.2,21.7,11.3,29.6c1.8,1.6,0.6,3.9,1.1,5.8c1.6,5.9,4.6,11.6,7,16.9c3.3,7.2,7.5,15.2,13.8,20.7
						c2.7,2.4,7.8,2.5,12.1,3.1c5.3,0.8,6.2-3.8,9.4-5.2c3.4-1.5,5.7-5.2,9-7c5.8-3.3,5-10.4,9.7-14.4c4.4-3.8,6.9-10.1,8.8-14.8
						c3.3-8,8.7-17.3,7.3-25.3c-1.5-8.4,1.2-16,2-23.3c1-9.8,0.8-20,2.8-29.7c1-4.7-4.1-7.8-1.6-13.2c2.6-5.7,0.7-12.8,0.9-19.1
						c0.3-9.5,2.1-20.1-0.8-28.7c-2.6-7.7-2.3-15.4-3.3-22.7c-1.2-8.7-4.8-17-4.7-26c0-2.6-1.1-5.1-3.9-7.2
						c-5.2-3.9-7.2-18-4.4-24.6c3.8-9.1,11.1-14.6,19.7-14.2c5.7,0.2,10.9-2.5,16.5-2.6c3.1-0.1,6,0.4,8.9,1.2
						c-2.2,4.5,2.8,6,3.7,8.9C883.3,30.8,878.8,30.9,875.8,32.1z"/>
					<path d="M421.7,161.2c-7.1,4.4-14.2,2.3-22.8,3.8c3.9,0.6,5.9,0.7,7.8,1.3c2.8,0.9,6.7,1.4,4.7,5.9c-1.4,3.1,6.4-0.8,2.7,4.2
						c-2,2.8,2.9,2.1,4.4,3.7c-5.8,2.1-11.1,5.4-17.6,4.5c-2.3-0.3-4,0.3-5.7,3.2c-3.5,5.8-10.3,7.4-16.7,7.7
						c-6.8,0.3-11.5,6-18.6,6.2c-2.3,0.1-1.3,6.9-0.5,7.5c4.8,3.1,4.7,8.8,4.2,12c-1.1,6.5,4.9,11.4,2.1,18.6
						c-1.1,2.9,3.1,9.7,3.4,14.8c0.6,9.1,6,16.8,7.1,25.5c0.8,5.8,5.4,10.7,3.6,17.1c-0.6,2.3,4.9,5.4,6.9,3.9
						c6.4-4.9,13.8-2,20.7-2.5c3.7-0.2,7.5,0.4,11.2-0.8c1.5-0.5,3.2-1.1,4.6-0.8c15.7,2.7,31-2.5,46.6-1.9
						c4.7-5.8,11.9-4.2,17.9-5.4c9.2-2,19.2-2.3,27.1,4.6c8.9,7.9,7.8,22.6-2.3,28.9c-6.7,4.2-14.1,7-22.1,8.4
						c-8.1,1.4-16,2-24.2,2.1c-5.5,0.1-10.5,8.1-17.1,1.5c-7.6,6.4-15.9-0.7-23.9,1.2c-9,2.2-18.7,1.1-27.5,5
						c-1.8,0.8-4.5,0.3-6.6-0.2c-6.6-1.5-12.8,1.4-19,2.5c-8.3,1.5-12.4-6.1-19.3-7.1c-0.3,0-0.3-1.6-0.5-2.4
						c-0.8-4.5,0.2-9.8-5.8-11.8c-0.4-0.1-0.7-1.1-0.6-1.7c0.3-9-4.4-16.9-6.1-25.4c-0.5-2.6-2.6-4.6-3.8-6.6
						c-3.2-5.2-3.9-10-2.2-15.6c0.1-0.2,0.2-0.6,0.1-0.7c-4.3-4-5.9-8.3-4.8-14.5c0.3-1.5-1.8-4.7-0.8-7.7c1.3-4.1,0.1-8.4-1.4-11.9
						c-2.2-5.3-2.2-11.5-6.7-15.9c-0.9-0.8,0.8-3.9,0.4-5.7c-1.1-4.4,2.7-10.8-4.8-12.8c-0.2,0-0.4-0.5-0.4-0.5
						c4.6-4.1-0.1-8.8,0.8-13c1.3-6-0.7-11.2-1.5-16.8c-1-7.4-6.6-14.1-4.6-21.3c1.6-5.6,1.3-8.7-3.9-11.1c-0.2-0.1-0.4-0.5-0.4-0.5
						c6.2-4.3-0.7-9.9,1.6-14.9c1.9-4.1-0.1-8.7-0.5-13.1c-0.8-8.7-8.1-16.3-3.5-25.9c1.8-3.8-3.9-2.6-5.7-5.2
						c3.3-3.2,0.5-6.2-0.2-9.9c-1.6-9-3.3-19.1,3.7-27.4c6-7.2,14.2-8.7,22.3-6c6.4,2.1,11.4-1.3,16.9-2.2c5.9-1,11.3,0.6,16.9,0.3
						c0.8,0,1.6,0.8,2.4,1.1c5.2,1.4,7.1-5.1,10.9-5c3.6,0,5.8,5.1,11.4,3c8-3,16-0.6,22.4,5.4c6.6,6.2,8.2,14,5.5,22.5
						c-2.5,8-8.4,11.9-17.2,12.9c-2.8,0.3-5.5,1.1-8.3,2.2c-3,1.2-7.8,3.2-10.6-1.2c-1.7-2.6-4-1.7-6-1.9c-8.5-0.7-16.8,0.5-24.9,3
						c-4.6,1.4,0.4,5.3-1.7,7.4c4.4,3.2,4.8,8.9,3.7,12.5c-1.9,6.7,5,12.5,0.7,19.2c-0.7,1.1,0.5,5.8,1.3,8.2
						c1.5,5,2.7,10.2,1.8,14.9c-1.2,6.8,6,10.9,4.2,17.7c-0.2,0.7,4.8,1.5,7.5,1c6.3-1.1,12.3-2.7,18.3-5.2
						c10.5-4.5,21.5-1.7,32.3-0.9c-4.9,4.4-10.7,3.1-16.2,3.7C403.5,158.7,412.7,156.2,421.7,161.2z"/>
				</g>
			</g>
		</g>
	</g>
	<g>
		<path class="st0" d="M353,228.3c3.8-0.9,7.1,0.8,7.6,3.8s-0.4,5.9-1.4,8.7c1.1-4,1.5-8.5,5.2-10.8c0.8-0.5,3.9,0,4.9,0
			c2.4,0.1,3.4,2.9,3.8,5.1c2.3,15.5,2,31.3,1.8,47c-0.3,14.8,1.7,22.6,1.4,37.4c0,0.6-0.1,1.3-0.5,1.7c-0.5,0.4-1.3-0.1-1.8,0.3
			c-5.7,4.7-14.3,0.5-14.3-5.6c-0.5,2.9-1.4,5.9-3.6,7.9c-2.2,2-6.2,2.7-8.4,0.6c-1.7-1.5-0.4-11.3-0.5-13.7
			c-0.1-4.6-0.2-9.1-0.3-13.7c-0.1-9.6-0.1-19.3,0.1-28.9c0.2-9,1.3-18.2,0.6-27.2C347.1,236.1,344.4,230.3,353,228.3z"/>
		<g>
			<path d="M363.1,299.6c0.2-9.9,0.2-19.9,0.4-29.8c0.2-8.3-0.5-16.6,0.3-24.9c0.3-2.5,0.1-5.1,0.3-7.7c0.3-3.8-1.8-5.9-5-7.1
				c-0.5,0-1.1,0-1.6,0c-0.7,2.4-0.1,4.9-0.2,7.3c-0.2,5.1,0.1,10.3-0.5,15.4c-0.4,3.6-0.3,7.3,0.2,11c0.4,2.6-0.1,5.1-0.2,7.6
				c-0.1,3.7-0.2,7.4,0.1,11c0.2,2.7-0.6,5.4-0.5,8c0.1,2-0.4,4,0,6c0.8,3.7-0.1,7.4,0.1,11.1c0.1,2,0.3,4,0.5,5.9
				c0.1,1.4,0.2,2.7,0,4c-0.4,2.2,0.7,3.7,2.6,4.2c1.7,0.5,2.2-1,3.2-2.3c1.7-2.5,1.3-4.8,0.9-7.5
				C363.1,307.9,363,303.8,363.1,299.6z"/>
			<path d="M433.3,285.7c0.2-5.6-0.4-9.4-1.1-13.2c-1.7-9.7-5.6-18.5-12.1-25.8c-6-6.8-14-10.4-22.9-11.9c-4.4-0.8-8.7-1.4-13.2-0.9
				c-2,0.2-4.1,0.4-6.1,0.3c-0.9-1.6-2.7-2.1-5.4-1.8c-1.7,0.2-2.2,1.3-1.8,2.5c1.6,4.9,0.1,10,0.7,14.9c0.2,1.8-0.9,3.8-0.7,5.7
				c0.4,3.8,0.6,7.6,0.6,11.4c0,1.6-0.7,3.5-0.5,4.9c0.5,4.1,1,8.1,0.8,12.2c-0.1,2.9-0.4,5.9,0.2,8.6c1.1,4.9,0.4,9.8,0.3,14.6
				c-0.1,2.8,0.3,5.1,1.3,6.8c-0.2,0.3-0.4,0.6-0.4,1.2c0.1,2.6,0.7,4.6,3.4,5.9c2.3,1.1,4.7,0.8,7,1.1c5.6,0.8,11.1,1.3,16.8,0.6
				c10.5-1.3,19.8-5,26-14C431.4,301.4,433.7,293,433.3,285.7z M425.7,291.6c-0.5,6.7-4,11.9-7.9,16.9c-0.9,1.2-2.7,1.7-4,2.5
				c-2.9,1.9-5.8,3.7-9.4,4.1c-1.4,0.1-2.8,0.4-4.1,0.5c-3.3,0.3-6.5,1.3-9.8,0.5c-3.1-0.8-6.3-0.9-9.5-1.3c-0.4,0-0.8-0.1-1.2-0.2
				c0-0.4,0-0.8,0-1.3c-0.2-3.3-0.4-6.7-0.4-10.1c0.1-7.7-0.5-15.4-0.8-23c-0.4-7.9-0.4-15.8-0.3-23.7c0-5.3-0.1-10.7,0.3-15.7
				c2.3-0.3,4.6-0.1,6.8-0.3c7.2-0.6,14.3,1,20.7,3.9c6.8,3.1,11.6,8.8,15.1,15.7c2.9,5.7,3.9,11.9,5.1,18
				C427.2,282.7,426,287.1,425.7,291.6z"/>
			<path d="M349,317.1c-0.4-4.8-0.1-9.7-0.2-14.5c-0.2-8.6,0-17.2-0.4-25.8c-0.4-7.6,0-15.3,0-22.9c0-3.4,0.3-6.8,0-10.3
				c-0.3-3,0.1-6.1,0.4-9.1c0.1-1.5,0.5-2.9-1.6-3.2c-2-0.2-3.5,0.1-4.3,0.9c-0.2,0-0.5,0-0.7,0c-3.5,0.3-7.1,0.4-10.6,0.2
				c-9-0.5-18.1-0.3-27.1-0.8c-9.1-0.5-18.3-0.8-27.5-0.4c-9,0.3-18,0.3-26.9,0.6c-9.2,0.3-18.3,1.1-27.5,1.4
				c-9.3,0.3-18.6,1.1-27.9,1.2c-6.8,0-13.6,0.5-22,0.8c-2.4,0.2-6.4,0.5-10.4,0.9c-0.7,0.1-1.4,0.3-1.9,0.7
				c-4.7-0.8-8.8,1.1-12.8,2.9c-4.4,2-9.1,2.8-13.3,4.9c-4.1,2-8.2,3.8-12.8,4.9c-4.5,1.2-8.5,4-13.2,5.2c-0.9,0.2-1.9,0.2-2.8,0.7
				c-3.6,1.8-7.3,3.5-11.2,4.8c-3.6,1.2-7.1,2.4-10.5,4.1c-4,2.1-8.4,3.4-12.7,4.7c-2.7,0.8-6.2,3.3-6.2,5.3c0,2,0.5,4.2,1.2,5.9
				c0.5,1.4,3.1,2.1,4.8,2.8c0.8,0.3,1.6,0.6,2.3,0.9c8.8,4.5,17.6,8.7,26.5,13c9.4,4.6,18.7,9.5,28.3,13.8
				c7.5,3.3,14.9,6.5,23.1,7.6c3.7,0.5,7.8,0,10.8,2.9c0.8,0.8,1.6,0.3,2.3-0.3c0.2-0.2,0.4-0.4,0.6-0.5c3.7,0.4,7.5,0.6,11.1,0
				c4.9-0.7,9.7,0.3,14.5,0.1c4.9-0.1,10.1-1.6,14.9,0.6c2.9-2,6.2-0.5,9.3-0.8c4.8-0.4,9.8,0.8,14.5,0.1c5.4-0.7,10.7,0.2,16.1,0
				c3.2-0.1,6.4-1,9.7-0.5c3.9,0.6,7.9,0.4,11.9,0.1c2.2-0.2,4.3-0.4,6.5,0c1.4,0.2,2.9,0.7,4.3,0.5c4.3-0.7,8.6-1.1,12.8-0.8
				c3.8,0.2,7.6,0.2,11.4-0.1c3.7-0.2,7.3,0,10.9,0.1c2.9,0.1,6.1-0.1,9.1-0.4c6.1-0.6,12.3,0.4,18.4-0.3c0.7-0.1,1.4-0.1,2-0.3
				c0.5,2.1,1.6,3.5,3.5,4.4c1.8,0.8,2.9,0.1,3-2C349.1,320,348.5,318.6,349,317.1z M159.6,301.5c-0.6,5.1-4.7,7.2-9.4,6.3
				c-1.8-0.3-3.8-0.3-5,1.1c-1,1.2-1.8,0.7-2.9,0.4c-6.2-1.4-11.3-5.4-17.3-7.1c-2-0.6-3.6-2-5.4-2.9c-2.2-1.1-4.2-2.5-6.6-3.2
				c-2.5-0.6-4.4-2.3-6.7-3.3c-2.2-1-4.1-2.3-6.4-3.6c4.2-2.9,3.7-7.6,4.8-11.4c1.1-3.9,1.4-8.2-0.9-12.2c-0.8-1.4,1.1-1.9,2.2-2.4
				c3.3-1.3,6.6-2.4,9.9-3.6c8.3-3.1,16.7-6.2,24.8-9.8c3.5-1.5,7.1-2.6,10.7-3.9c0.2-0.1,0.7-0.2,0.7-0.1c1,2.8,3.3,1.6,5.2,1.6
				c1,0,1.1,0.8,1.5,1.4c2.4,3.9,4.7,7.7,4.5,12.8c-0.1,1.6,0.3,3.7,0.5,5.5c0.2,2.2-0.9,3.7-2.5,5c-3.2,2.7-7.2,3.3-10.9,4.6
				c-4.2,1.4-4.8,2.5-4.1,6.7c0.3,2,1.4,2.2,2.9,1.9c2.7-0.4,4.9,0.5,7.1,2c2.3,1.5,3.2,3.4,3.4,6
				C159.9,296.1,159.9,298.8,159.6,301.5z M341.9,312.2c-1.3,0.1-2.6,0.1-3.8,0.1c-8.5,0.1-17,0.4-25.4,0.5
				c-8.4,0.1-16.8-0.1-25.2,0.4c-8.7,0.4-17.5,0.3-26.2,0.2c-8.9,0-17.7,0.3-26.6,0c-9.6-0.3-19.2,0.2-28.7,0.2
				c-8.7,0-17.4,0.1-26.1-0.1c-5.6-0.1-11.2,0.5-16.8-0.2c0,0,0,0-0.1,0c-0.6-0.3-1.6,0.4-2.1-0.9c4.5-4.2,6.4-9.5,6.1-15.8
				c-0.2-4.9-1-9.6-4-13.2c2.2-0.3,4.4-0.3,6.5-0.5c5.1-0.3,10.2-0.1,15.3,0.1c5.4,0.2,10.7,0.4,16.1,0.1c5.3-0.3,10.6,0,16-0.3
				c5.4-0.3,10.8,0,16.1,0.1c3.9,0.1,7.7-1,11.6-0.1c2.4,0.6,5.2,0.5,7.3,0c4.5-1.1,8.9,0.3,13.3-0.3c2.5-0.3,5.3-0.5,7.9-0.5
				c2.6-0.1,5.1,0.4,7.7,0.2c3.6-0.2,7.3-1.3,10.9-0.3c2.8,0.8,5.7,0.1,8.4-0.3c4.9-0.6,9.7,0.1,14.5-0.2c2-0.2,4.1-0.5,6.1-0.7
				c1-0.1,1.1-1.7,1-2.9c-0.1-0.6,0.6-0.5,1-0.5c1.5,0.1,1-1.4,1.6-2c-0.7-0.7-0.9-1.9-2.3-1.8c-6.1,0.7-12.2,0.6-18.3,0.8
				c-7.7,0.2-15.4,0.6-23.1,0.7c-8.1,0.2-16.2-0.1-24.2,0.3c-7.9,0.4-15.8,0.2-23.7,0.5c-10.4,0.3-20.7,0.2-31.1,0.4
				c-8.9,0.2-17.9,0.2-27.1-0.6c-2.4,0-4.8,0.2-7.3,0.4c3.1-3.3,4.7-7.6,3.7-13.9c-1-6.5-2.2-12.8-6.7-17.9c0.6-0.1,1.2-0.3,2-0.7
				c2.7-1.4,6.4-0.4,9.6-1c3.1-0.6,6.4,0.5,9.2,0.1c2.9-0.4,6-0.5,8.9-0.8c7.1-0.5,14.3,0.2,21.3-1.1c0.5-0.1,1.1-0.1,1.7,0
				c3.5,0.7,7.2,0.3,10.5-0.4c4.9-1.1,9.7,0.1,14.5-0.7c5.7-0.9,11.6-0.4,17.4-0.8c6.3-0.4,12.6-0.3,18.9-0.5
				c5.8-0.2,11.5-0.1,17.3,0.3c4.8,0.3,9.7-0.6,14.5,0.6c0.7,0.2,1.4,1,1.7,0.8c3-1.6,6.2-0.3,9.3-0.6c6-0.4,12.1,0.9,18.2,0.2
				c1.4-0.2,2.7-0.1,3.2-1.1c-0.1,1.2-0.2,2.4-0.1,3.6c0.3,5.8-0.3,11.6-0.1,17.4c0.3,7.9-0.5,15.8,0.2,23.6
				c0.4,4.8-0.8,9.6-0.1,14.3C342.8,302.5,342,307.3,341.9,312.2z"/>
		</g>
		<path class="st1" d="M341.8,312.4c-1.3,0.1-2.6,0.1-3.8,0.1c-8.5,0.1-17,0.4-25.4,0.5c-8.4,0.1-16.8-0.1-25.2,0.4
			c-8.7,0.4-17.5,0.3-26.2,0.2c-8.9,0-17.7,0.3-26.6,0c-9.6-0.3-19.2,0.2-28.7,0.2c-8.7,0-17.4,0.1-26.1-0.1
			c-5.6-0.1-11.2,0.5-16.8-0.2c0,0,0,0-0.1,0c-0.6-0.3-1.6,0.4-2.1-0.9c4.5-4.2,6.4-9.5,6.1-15.8c-0.2-4.9-1-9.6-4-13.2
			c2.2-0.3,4.4-0.3,6.5-0.5c5.1-0.3,10.2-0.1,15.3,0.1c5.4,0.2,10.7,0.4,16.1,0.1c5.3-0.3,10.6,0,16-0.3c5.4-0.3,10.8,0,16.1,0.1
			c3.9,0.1,7.7-1,11.6-0.1c2.4,0.6,5.2,0.5,7.3,0c4.5-1.1,8.9,0.3,13.3-0.3c2.5-0.3,5.3-0.5,7.9-0.5c2.6-0.1,5.1,0.4,7.7,0.2
			c3.6-0.2,7.3-1.3,10.9-0.3c2.8,0.8,5.7,0.1,8.4-0.3c4.9-0.6,9.7,0.1,14.5-0.2c2-0.2,4.1-0.5,6.1-0.7c1-0.1,1.1-1.7,1-2.9
			c-0.1-0.6,0.6-0.5,1-0.5c1.5,0.1,1-1.4,1.6-2c-0.7-0.7-0.9-1.9-2.3-1.8c-6.1,0.7-12.2,0.6-18.3,0.8c-7.7,0.2-15.4,0.6-23.1,0.7
			c-8.1,0.2-16.2-0.1-24.2,0.3c-7.9,0.4-15.8,0.2-23.7,0.5c-10.4,0.3-20.7,0.2-31.1,0.4c-8.9,0.2-17.9,0.2-27.1-0.6
			c-2.4,0-4.8,0.2-7.3,0.4c3.1-3.3,4.7-7.6,3.7-13.9c-1-6.5-2.2-12.8-6.7-17.9c0.6-0.1,1.2-0.3,2-0.7c2.7-1.4,6.4-0.4,9.6-1
			c3.1-0.6,6.4,0.5,9.2,0.1c2.9-0.4,6-0.5,8.9-0.8c7.1-0.5,14.3,0.2,21.3-1.1c0.5-0.1,1.1-0.1,1.7,0c3.5,0.7,7.2,0.3,10.5-0.4
			c4.9-1.1,9.7,0.1,14.5-0.7c5.7-0.9,11.6-0.4,17.4-0.8c6.3-0.4,12.6-0.3,18.9-0.5c5.8-0.2,11.5-0.1,17.3,0.3
			c4.8,0.3,9.7-0.6,14.5,0.6c0.7,0.2,1.4,1,1.7,0.8c3-1.6,6.2-0.3,9.3-0.6c6-0.4,12.1,0.9,18.2,0.2c1.4-0.2,2.7-0.1,3.2-1.1
			c-0.1,1.2-0.2,2.4-0.1,3.6c0.3,5.8-0.3,11.6-0.1,17.4c0.3,7.9-0.5,15.8,0.2,23.6c0.4,4.8-0.8,9.6-0.1,14.3
			C342.7,302.7,341.9,307.5,341.8,312.4z"/>
		<path class="st2" d="M425.6,291.6c-0.5,6.7-4,11.9-7.9,16.9c-0.9,1.2-2.7,1.7-4,2.5c-2.9,1.9-5.8,3.7-9.4,4.1
			c-1.4,0.1-2.8,0.4-4.1,0.5c-3.3,0.3-6.5,1.3-9.8,0.5c-3.1-0.8-6.3-0.9-9.5-1.3c-0.4,0-0.8-0.1-1.2-0.2c0-0.4,0-0.8,0-1.3
			c-0.2-3.3-0.4-6.7-0.4-10.1c0.1-7.7-0.5-15.4-0.8-23c-0.4-7.9-0.4-15.8-0.3-23.7c0-5.3-0.1-10.7,0.3-15.7c2.3-0.3,4.6-0.1,6.8-0.3
			c7.2-0.6,14.3,1,20.7,3.9c6.8,3.1,11.6,8.8,15.1,15.7c2.9,5.7,3.9,11.9,5.1,18C427,282.8,425.9,287.2,425.6,291.6z"/>
		<path class="st3" d="M159.5,301.5c-0.6,5.1-4.7,7.2-9.4,6.3c-1.8-0.3-3.8-0.3-5,1.1c-1,1.2-1.8,0.7-2.9,0.4
			c-6.2-1.4-11.3-5.4-17.3-7.1c-2-0.6-3.6-2-5.4-2.9c-2.2-1.1-4.2-2.5-6.6-3.2c-2.5-0.6-4.4-2.3-6.7-3.3c-2.2-1-4.1-2.3-6.4-3.6
			c4.2-2.9,3.7-7.6,4.8-11.4c1.1-3.9,1.4-8.2-0.9-12.2c-0.8-1.4,1.1-1.9,2.2-2.4c3.3-1.3,6.6-2.4,9.9-3.6c8.3-3.1,16.7-6.2,24.8-9.8
			c3.5-1.5,7.1-2.6,10.7-3.9c0.2-0.1,0.7-0.2,0.7-0.1c1,2.8,3.3,1.6,5.2,1.6c1,0,1.1,0.8,1.5,1.4c2.4,3.9,4.7,7.7,4.5,12.8
			c-0.1,1.6,0.3,3.7,0.5,5.5c0.2,2.2-0.9,3.7-2.5,5c-3.2,2.7-7.2,3.3-10.9,4.6c-4.2,1.4-4.8,2.5-4.1,6.7c0.3,2,1.4,2.2,2.9,1.9
			c2.7-0.4,4.9,0.5,7.1,2c2.3,1.5,3.2,3.4,3.4,6C159.8,296.1,159.8,298.8,159.5,301.5z"/>
	</g>
</g>
</svg>
