<?xml version="1.0" encoding="utf-8"?>
<!-- Generator: Adobe Illustrator 28.0.0, SVG Export Plug-In . SVG Version: 6.00 Build 0)  -->
<svg version="1.1" id="Capa_1" xmlns="http://www.w3.org/2000/svg" xmlns:xlink="http://www.w3.org/1999/xlink" x="0px" y="0px"
	 viewBox="0 0 76.4 17.1" style="enable-background:new 0 0 76.4 17.1;" xml:space="preserve">
<g>
	<g>
		<g>
			<path d="M8.2,5.4C7,6.8,6.8,8.8,6.9,10.6c0.1,1.7,0.7,3.5,2.3,4.4c3.6,2.1,7.5-1.6,8.5-4.9c0.6-2.2,0.5-4.4,0.4-6.7
				c0-0.3-0.3-0.9-0.6-0.5c-0.5,0.6-1.1,1.1-1.6,1.7c0.1,0,0.3,0,0.4,0c-1.1-1.3-3.5-1.1-5-0.9c-0.4,0.1-0.9,0.2-1.3,0.2
				c-0.5,0-1-0.5-1.4-0.7C7.6,2.7,6.8,2.1,5.9,1.6C5.6,1.4,5.4,1.9,5.4,2C5.2,3.2,5.8,4.3,6,5.5c0.3,1.3,0.4,2.6,0.6,3.9
				c0.4,2.1,1.3,4.2,3.1,5.4c1.6,1,3.8,1.4,5.6,0.6c1.9-0.8,2.7-2.8,3-4.7c0.2-1.3,0.4-2.5,0.7-3.8c0.3-1.4,0.7-2.9,0.6-4.4
				c0-0.3-0.3-0.8-0.6-0.5c-1.2,0.9-2.3,1.7-3.5,2.6c0.1,0.4,0.3,0.7,0.4,1.1c1.1-1.2,2.1-2.4,3.6-3.2C19.4,2.2,19.2,2,19,1.8
				c0.1,4,1,9.3-2.8,12.1c-0.8,0.6-1.7,0.9-2.6,1c-1.1,0.1-2.4-0.1-3.4-0.4c-1.8-0.7-2.7-2.4-3.3-4.1c-0.8-2.5-1-5.1-0.7-7.7
				c0.1-0.7-0.7-1.1-0.8-0.3C5.1,4.8,5.2,7.4,5.9,9.9c0.5,2,1.4,4.1,3.2,5.3c0.9,0.6,2.1,0.7,3.1,0.8c1.2,0.1,2.3,0,3.3-0.5
				c2-1,3.3-2.9,3.9-5c0.8-2.9,0.4-5.8,0.3-8.8c0-0.2-0.2-0.8-0.5-0.6c-1.5,0.8-2.6,2.1-3.7,3.3C15.2,4.9,15.4,6,16,5.6
				c1.2-0.9,2.3-1.7,3.5-2.6c-0.2-0.2-0.4-0.3-0.6-0.5c0.1,2.2-0.7,4.3-1,6.4c-0.3,1.7-0.5,3.6-1.9,4.8c-1.4,1.1-3.5,1.1-5.1,0.4
				C9,13.2,8,11.5,7.5,9.6C7.3,8.4,7.1,7.2,6.9,6C6.9,5.4,6.7,4.8,6.6,4.3C6.4,3.7,6.1,3,6.2,2.4C6,2.5,5.8,2.7,5.7,2.8
				c0.8,0.5,1.6,1,2.4,1.5c0.8,0.5,1.4,1,2.3,0.8c0.9-0.2,1.9-0.2,2.8-0.2c0.9,0,1.9,0.1,2.5,0.8c0.1,0.1,0.3,0.1,0.4,0
				c0.5-0.6,1.1-1.1,1.6-1.7c-0.2-0.2-0.4-0.3-0.6-0.5c0.1,2,0.3,4.1-0.3,6c-0.6,1.9-1.9,3.6-3.7,4.4c-1.8,0.8-4.2,0.5-5.1-1.5
				c-0.4-1-0.5-2.1-0.4-3.1c0.1-1,0.2-2,0.9-2.8C8.9,6.1,8.6,4.9,8.2,5.4L8.2,5.4z"/>
		</g>
	</g>
	<g>
		<g>
			<path d="M2.5,11.2c1-0.1,1.9-0.3,2.8-0.6c0.1,0,0.1-0.3-0.1-0.3c-0.9,0.3-1.8,0.5-2.8,0.6C2.3,10.9,2.4,11.2,2.5,11.2L2.5,11.2z"
				/>
		</g>
	</g>
	<g>
		<g>
			<path d="M1.4,14.2c1.4-0.7,2.9-1.4,4.3-2c0.1,0,0.1-0.3-0.1-0.3c-1.5,0.6-2.9,1.3-4.3,2C1.2,14,1.2,14.2,1.4,14.2L1.4,14.2z"/>
		</g>
	</g>
	<g>
		<g>
			<path d="M7,13.3c-0.4,0.3-0.8,0.6-1.2,0.9c0,0-0.1,0.1,0,0.2c0,0,0.1,0.1,0.1,0c0.3-0.3,0.7-0.6,1.1-0.9c0.1,0,0.1-0.1,0.1-0.2
				C7.1,13.3,7,13.2,7,13.3L7,13.3z"/>
		</g>
	</g>
	<g>
		<g>
			<path d="M20.2,10.8c0.2-0.2,0.5-0.2,0.7-0.2c0.3,0,0.6,0.1,0.9,0.1c0.6,0.1,1.2,0.3,1.8,0.5c0.1,0,0.1-0.2,0-0.3
				c-0.6-0.2-1.3-0.4-1.9-0.5c-0.5-0.1-1.2-0.2-1.6,0.1C20.1,10.7,20.1,10.9,20.2,10.8L20.2,10.8z"/>
		</g>
	</g>
	<g>
		<g>
			<path d="M19.9,11.8c0.6,0,1.1,0.1,1.6,0.3c0.1,0,0.2-0.2,0-0.3c-0.5-0.2-1.1-0.3-1.7-0.3C19.8,11.6,19.8,11.8,19.9,11.8
				L19.9,11.8z"/>
		</g>
	</g>
	<g>
		<g>
			<path d="M19.3,12.9c0.9,0.4,1.7,0.9,2.5,1.5c0.1,0.1,0.2-0.2,0.1-0.2c-0.8-0.6-1.6-1.1-2.5-1.6C19.2,12.5,19.2,12.8,19.3,12.9
				L19.3,12.9z"/>
		</g>
	</g>
	<g>
		<g>
			<path d="M12.8,8c0-0.2-0.2-0.5-0.4-0.4c-0.1,0-0.3,0.2-0.3,0.3c-0.1,0.2-0.3,0.4-0.4,0.6c-0.3,0.4-0.5,0.9-0.8,1.3
				c-0.2,0.4-0.5,0.7-0.6,1.1c0,0.1,0.1,0.2,0.1,0.2c0.6-0.7,1.3-1.4,2-2.1c0.3-0.3,0.7-0.7,1-1c0.3-0.3,0.7-0.6,1.1-0.8
				c0-0.1-0.1-0.2-0.1-0.2c-0.5,0.9-1.1,1.8-1.7,2.7c-0.5,0.8-1,1.6-1.1,2.5c0,0.1,0.2,0.2,0.2,0.1c0.1-1,0.6-1.8,1.2-2.5
				c0.6-0.8,1.1-1.7,1.6-2.5c0-0.1,0-0.3-0.1-0.2c-0.4,0.1-0.7,0.4-1,0.7c-0.4,0.3-0.7,0.7-1.1,1c-0.7,0.7-1.4,1.4-2.1,2.1
				c0,0.1,0.1,0.1,0.1,0.2c0.1-0.3,0.3-0.6,0.4-0.8c0.2-0.3,0.4-0.6,0.6-0.9C11.6,9,11.8,8.7,12,8.4c0.1-0.1,0.2-0.3,0.2-0.4
				c0-0.1,0.1-0.1,0.2-0.2c0,0,0.3-0.1,0.3,0C12.7,8.1,12.8,8.2,12.8,8L12.8,8z"/>
		</g>
	</g>
	<g>
		<g>
			<path d="M10.2,11.8C10.1,12,9.7,11.1,9.6,11c-0.1-0.2-0.1-0.3-0.2-0.5C9.2,10,9.1,9.5,8.9,9C8.7,8.2,8.5,7.3,8.3,6.4
				c0-0.2-0.2-0.1-0.2,0c0.1,2.3,0.5,4.6,1.2,6.8c0.1,0,0.1-0.1,0.2-0.1C8.1,10,7.5,6.5,6.9,3.1c0-0.1-0.1-0.1-0.2,0
				C6.4,4.5,6.4,5.8,6.5,7.2c0.1,0,0.1,0,0.2,0C6.6,6.6,6.6,6,6.6,5.4c0-0.2,0.1-0.5,0.1-0.7c0-0.1,0-0.4,0.1-0.5c0-0.1,0-0.1,0.1,0
				c0.1,0,0.2,0.1,0.1,0.3c0,0.5-0.1,1.1-0.2,1.6C6.9,6.5,6.8,7.1,6.8,7.7c0,0.1,0.1,0.2,0.2,0.1c0.3-1.3,0.6-2.7,1.3-3.9
				C8.1,3.9,8.1,3.9,8,3.8C7.9,5.9,7.8,8,7.6,10.1c0,0.1,0.2,0.2,0.2,0c0.3-1.9,0.6-3.9,1.3-5.7c-0.1,0-0.1,0-0.2,0
				c0.2,0.7,0,1.4-0.1,2.1C8.8,7.1,8.7,7.7,8.6,8.3C8.5,9.5,8.4,10.8,8.4,12c0,0.1,0.1,0.2,0.2,0.1c0.7-2.3,0.6-4.9,1.9-7
				c-0.1,0-0.1-0.1-0.2-0.1c-0.2,2.5-1,5-0.8,7.5c0,0.1,0.2,0.2,0.2,0c0.3-2.5,0.8-5,1.6-7.3c0,0-0.1,0-0.1,0c0.2,0.3,0,0.9,0,1.2
				C11,6.6,11,6.9,11,7.2c-0.1,0.6-0.1,1.2-0.2,1.8c-0.1,1.1-0.3,2.3-0.4,3.4c0,0.1,0.2,0.2,0.2,0.1c0.2-1.4,0.3-2.8,0.5-4.2
				c0.1-0.7,0.2-1.4,0.3-2.1c0-0.4,0.2-0.8-0.1-1.1c0-0.1-0.1,0-0.1,0c-0.8,2.4-1.3,4.9-1.6,7.4c0.1,0,0.1,0,0.2,0
				c-0.2-2.5,0.6-5,0.8-7.5c0-0.1-0.1-0.3-0.2-0.1c-1.3,2.1-1.1,4.7-1.9,7c0.1,0,0.1,0,0.2,0.1c0-1.4,0.1-2.9,0.4-4.3
				c0.2-1.1,0.6-2.3,0.3-3.4c0-0.1-0.1-0.1-0.2,0C8.3,6.1,8,8.1,7.6,10c0.1,0,0.1,0,0.2,0C8,8,8.1,5.9,8.2,3.8
				c0-0.1-0.1-0.2-0.2-0.1c-0.7,1.2-1,2.6-1.3,4c0.1,0,0.1,0,0.2,0.1c0.1-1,0.2-2,0.3-2.9c0-0.2,0.3-1.2-0.1-1.3
				c-0.4-0.1-0.5,1-0.6,1.3c-0.2,0.8-0.2,1.6,0,2.4c0,0.1,0.2,0.1,0.2,0C6.6,5.9,6.6,4.5,6.9,3.2c-0.1,0-0.1,0-0.2,0
				c0.6,3.4,1.1,6.9,2.6,10.1c0.1,0.1,0.2,0,0.2-0.1C8.9,11,8.5,8.7,8.4,6.5c-0.1,0-0.1,0-0.2,0C8.4,7.8,8.7,9,9.1,10.2
				c0.2,0.6,0.4,1.2,0.7,1.7c0.1,0.2,0.4,0.4,0.5,0.1C10.4,11.9,10.3,11.7,10.2,11.8L10.2,11.8z"/>
		</g>
	</g>
	<g>
		<g>
			<path d="M9.2,9.9c-0.5-0.7-1-1.3-1.6-2C7.4,7.6,7.1,7,6.7,7.1c-0.1,0-0.1,0.1,0,0.2c1.3,2.4,2.8,4.7,4.4,6.9
				c0.1,0.1,0.2-0.1,0.1-0.2c-0.7-1-1.5-2-2.2-3.1c-0.8-1.2-1.8-2.5-1.6-4C7.4,7,7.4,7,7.3,7c0.6,0.5,1,1.3,1.4,2
				c0.5,0.8,0.9,1.5,1.5,2.3c0.5,0.7,1,1.4,1.6,2c0.2,0.3,0.6,0.7,0.9,0.4c0.1,0,0-0.2,0-0.2c-1.7-2.7-3.4-5.4-5-8.2
				c0,0.1-0.1,0.1-0.1,0.2c2,2.9,3.9,5.8,6.3,8.5c0.1,0.1,0.2-0.1,0.1-0.2c-1.6-2.6-3.2-5.2-4.9-7.8C9.1,6,9,6.1,9,6.2
				c1.1,1.5,2.2,3,3.3,4.5c0.9,1.2,1.8,2.5,3.1,3.4c0.1,0.1,0.1-0.1,0.1-0.2c-1.7-2.7-3.5-5.4-5.2-8.2c0,0.1-0.1,0.1-0.1,0.2
				c2.6,2.2,3.9,5.5,6.4,7.8c0.1,0.1,0.2-0.1,0.1-0.2c-1.5-2.9-3.8-5.4-5-8.4c0,0.1-0.1,0.1-0.1,0.2c1.7,2.3,3.5,4.6,5.5,6.7
				c0.1,0.1,0.2-0.1,0.1-0.2c-0.9-2.2-2.8-3.9-3.5-6.2c0,0.1-0.1,0.1-0.1,0.2c1.1,0.4,1.8,1.6,2.5,2.6C16.2,9,16.6,9.5,17,10
				c0.2,0.3,0.4,0.6,0.8,0.6c0.1,0,0.1-0.2,0.1-0.2c-1.1-1.8-2.1-3.7-3-5.6c0,0.1-0.1,0.1-0.1,0.2c1.1,1.4,2.3,2.8,3.4,4.3
				c0.1,0.1,0.2-0.1,0.1-0.2c-0.7-1.3-1.4-2.6-1.9-4c0,0.1-0.1,0.1-0.1,0.2c0.9,0.9,1.7,1.9,2.4,3C18.7,8.3,18.8,8,18.7,8
				c-0.5-1.2-1-2.4-1.3-3.7c0,0.1-0.1,0.1-0.1,0.2C18,5,18.5,5.8,18.9,6.6c0.1,0.2,0.2,0,0.2-0.1c-0.4-1.1-0.7-2.2-1-3.3
				c0,0-0.1,0.1-0.1,0.1c0.4,0.6,0.8,1.3,1.2,1.9c0.1,0.1,0.2-0.1,0.1-0.2c-0.2-0.6-0.4-1.2-0.5-1.9c0,0-0.1,0.1-0.1,0.1
				c0.2,0.3,0.5,0.7,0.7,1c0.1,0.1,0.2,0,0.2-0.1c0-0.4-0.1-0.9-0.2-1.3c-0.1,0-0.1,0.1-0.2,0.1c0.1,0.2,0.2,0.4,0.3,0.6
				c0.1,0.2,0.2,0,0.2-0.1c-0.1-0.2-0.2-0.4-0.3-0.6c-0.1-0.1-0.2,0-0.2,0.1c0.1,0.4,0.2,0.8,0.2,1.2c0.1,0,0.1-0.1,0.2-0.1
				c-0.2-0.3-0.5-0.7-0.7-1c-0.1-0.1-0.2,0.1-0.1,0.1c0.1,0.7,0.3,1.3,0.5,1.9c0-0.1,0.1-0.1,0.1-0.2c-0.4-0.6-0.8-1.3-1.2-1.9
				C18,3,17.9,3.2,17.9,3.2c0.2,1.1,0.6,2.3,1,3.3c0.1,0,0.1-0.1,0.2-0.1c-0.4-0.8-1-1.6-1.6-2.3c-0.1-0.1-0.1,0.1-0.1,0.2
				c0.2,1.3,0.7,2.6,1.3,3.8c0-0.1,0.1-0.1,0.1-0.2c-0.7-1.1-1.5-2.1-2.4-3c-0.1-0.1-0.1,0.1-0.1,0.2c0.5,1.4,1.2,2.8,1.9,4.1
				c0-0.1,0.1-0.1,0.1-0.2c-1.1-1.4-2.3-2.8-3.4-4.3c-0.1-0.1-0.2,0.1-0.1,0.2c0.9,1.9,1.9,3.8,3.1,5.7c0-0.1,0-0.2,0.1-0.2
				c-0.6,0.1-1.3-1.3-1.5-1.7c-0.3-0.5-0.7-0.9-1-1.4c-0.5-0.7-1-1.3-1.8-1.6c-0.1,0-0.1,0.1-0.1,0.2c0.7,2.4,2.6,4,3.6,6.3
				c0-0.1,0.1-0.1,0.1-0.2c-1.9-2.2-3.7-4.4-5.5-6.7c-0.1-0.1-0.2,0.1-0.1,0.2c1.2,3.1,3.6,5.5,5,8.4c0-0.1,0.1-0.1,0.1-0.2
				c-2.5-2.3-3.8-5.6-6.4-7.8c-0.1-0.1-0.1,0.2-0.1,0.2c1.7,2.7,3.5,5.4,5.2,8.2c0-0.1,0.1-0.1,0.1-0.2c-1.3-0.9-2.2-2.3-3.2-3.5
				c-1-1.4-2.1-2.9-3.1-4.3C9,5.8,8.9,6.1,9,6.2c1.6,2.6,3.2,5.2,4.9,7.8c0-0.1,0.1-0.1,0.1-0.2c-2.3-2.6-4.3-5.6-6.3-8.5
				C7.6,5.2,7.5,5.4,7.6,5.5c1.6,2.8,3.3,5.5,5,8.2c0-0.1,0-0.1,0-0.2c-0.5,0.4-2.7-3.1-3-3.5C8.9,8.9,8.4,7.6,7.4,6.8
				c-0.1-0.1-0.1,0-0.1,0.1c-0.2,1.3,0.5,2.4,1.1,3.5c0.8,1.3,1.8,2.6,2.7,3.9c0-0.1,0.1-0.1,0.1-0.2c-1.7-2.1-3.1-4.4-4.4-6.8
				c0,0.1,0,0.1,0,0.2c0.4-0.2,1.1,1,1.3,1.3c0.3,0.4,0.7,0.9,1,1.3C9.2,10.2,9.3,10,9.2,9.9L9.2,9.9z"/>
		</g>
	</g>
	<g>
		<g>
			<path d="M14.6,9c-0.2,0.2-0.4,0.3-0.6,0.4c0,0.1,0.1,0.1,0.1,0.2c0.3-1.2,1-2.3,1.9-3.2c0-0.1-0.1-0.1-0.1-0.2
				c-0.6,1.1-1.2,2.1-1.9,3.1c-0.3,0.4-0.6,0.9-0.9,1.3c-0.1,0.2-0.4,0.7-0.2,0.9c0.3,0.2,0.8-0.5,0.9-0.7c0.4-0.4,0.7-0.9,1.1-1.3
				c0.8-1,1.5-2,2.2-3c0.1-0.1,0-0.3-0.1-0.2c-0.8,1.1-1.7,2.3-2.5,3.5c-0.4,0.6-0.8,1.1-1.2,1.7c-0.3,0.5-0.6,1-0.7,1.6
				c0,0.1,0,0.2,0.1,0.2c0.4,0,0.7-0.4,0.9-0.8c0.3-0.4,0.7-0.9,1-1.3c0.7-0.9,1.3-1.9,2-2.8c0.1-0.1,0-0.3-0.1-0.2
				c-0.9,1.2-1.7,2.5-2.2,3.9c0,0.1,0.1,0.3,0.1,0.1c0.5-1.4,1.3-2.7,2.2-3.9c0-0.1-0.1-0.1-0.1-0.2c-0.6,0.9-1.1,1.7-1.7,2.5
				c-0.3,0.4-0.6,0.8-0.9,1.2c-0.3,0.4-0.7,1.1-1.2,1.1c0,0.1,0.1,0.1,0.1,0.2c0.1-0.6,0.5-1.2,0.9-1.7c0.4-0.6,0.8-1.1,1.2-1.7
				c0.8-1.1,1.6-2.2,2.4-3.2c0-0.1-0.1-0.1-0.1-0.2c-0.6,0.8-1.2,1.7-1.8,2.5c-0.3,0.4-0.6,0.8-0.9,1.2c-0.2,0.2-0.4,0.5-0.6,0.7
				c-0.1,0.1-0.3,0.5-0.5,0.6c-0.4,0.2,0-0.4,0-0.5c0.1-0.2,0.2-0.4,0.4-0.6c0.3-0.4,0.6-0.8,0.8-1.2C15,8,15.5,7.2,16,6.3
				c0-0.1,0-0.3-0.1-0.2c-0.9,0.9-1.6,2-1.9,3.3c0,0.1,0,0.2,0.1,0.2c0.2-0.1,0.4-0.2,0.6-0.4C14.7,9.1,14.7,8.9,14.6,9L14.6,9z"/>
		</g>
	</g>
	<g>
		<g>
			<path d="M14.7,8.5c-0.1-0.1-0.2-0.1-0.3-0.2c-0.1,0-0.1-0.1-0.2-0.1c0,0,0,0,0,0c0,0,0,0,0,0c0,0,0-0.1-0.1-0.1
				c0-0.1-0.1-0.1-0.1-0.2c0-0.1,0,0,0,0c0,0,0,0,0,0c0,0,0-0.1,0-0.1c0,0,0-0.1,0-0.1c0,0,0,0,0,0c0,0,0,0,0,0c0,0,0-0.1,0-0.1
				c0,0,0,0,0-0.1c0,0,0,0,0,0c0-0.1,0-0.2-0.2-0.2c-0.1,0-0.2,0.2-0.2,0.3C13.6,8.1,14,8.7,14.7,9c0.1,0,0.2-0.1,0.2-0.2
				C14.9,8.7,14.8,8.5,14.7,8.5L14.7,8.5z"/>
		</g>
	</g>
	<g>
		<g>
			<path d="M14.8,5.7c-0.4-1.2-1.9,0.6-2.2,1c-0.8,0.9-1.4,1.9-1.9,3c-0.1,0.1,0.1,0.5,0.2,0.3c1.3-1.4,2.5-2.9,3.6-4.4
				c0.1-0.1,0-0.5-0.2-0.4c-0.5,0.3-0.9,0.7-1.3,1.1c-0.4,0.5-0.9,1-1.3,1.6c-0.4,0.5-0.9,1.1-1.3,1.6C10,10,9.6,10.4,9.5,11
				c0,0.1,0,0.4,0.2,0.3c1.1-0.4,1.9-1.3,2.6-2.1c0.9-0.9,1.7-1.7,2.7-2.5c-0.1-0.1-0.1-0.3-0.2-0.4c-0.8,1.1-1.7,2.1-2.5,3.2
				c-0.4,0.5-0.8,1.1-1.1,1.7c-0.3,0.5-0.5,1-0.4,1.5c0,0.1,0.1,0.3,0.2,0.1c1.2-1.4,2.4-2.7,3.5-4.1c0.1-0.2,0-0.6-0.2-0.4
				c-1.2,1.4-2.4,2.7-3.5,4.1c0.1,0,0.2,0.1,0.2,0.1c-0.2-0.6,0.4-1.2,0.7-1.7c0.3-0.5,0.7-1,1-1.5c0.7-0.9,1.4-1.9,2.2-2.8
				c0.1-0.1,0-0.5-0.2-0.4C14,7,13.1,7.9,12.3,8.7c-0.8,0.8-1.6,1.8-2.7,2.1c0.1,0.1,0.1,0.2,0.2,0.3c0.1-0.6,0.7-1.1,1-1.6
				c0.4-0.5,0.8-0.9,1.2-1.4c0.7-0.8,1.4-1.9,2.3-2.4c-0.1-0.1-0.1-0.3-0.2-0.4c-1.1,1.5-2.3,2.9-3.5,4.3c0.1,0.1,0.2,0.2,0.2,0.3
				c0.4-0.9,0.9-1.7,1.5-2.4c0.3-0.4,0.6-0.7,0.9-1c0.2-0.2,1-1.1,1.2-0.5C14.6,6.3,14.8,5.9,14.8,5.7L14.8,5.7z"/>
		</g>
	</g>
	<g>
		<g>
			<path d="M16.3,6.3c-1.3,2.3-2.2,4.7-2.7,7.3c0,0.2,0.2,0.5,0.3,0.2c1.1-2.7,2.2-5.4,3.3-8.1c-0.1-0.1-0.2-0.1-0.3-0.2
				c-0.4,2.6-1.8,5-1.8,7.7c0,0.2,0.2,0.4,0.3,0.1c0.8-2.1,1.7-4.1,2.5-6.2C17.8,7.1,17.7,7,17.6,7c-0.4,2.2-1,4.4-1.8,6.5
				c-0.1,0.2,0.1,0.5,0.3,0.3c1.4-1.9,2.1-4.1,2.8-6.3c-0.1,0-0.2,0-0.3-0.1c0.3,1.8-0.9,3.4-1.2,5.2c0,0.1,0.2,0.5,0.3,0.2
				c0.7-1.4,1.3-3,1.8-4.5c-0.1-0.1-0.2-0.1-0.3-0.2c-0.1,0.8-0.3,1.7-0.6,2.5c0.1,0.1,0.2,0.1,0.3,0.2c0.1-0.5,0.2-1,0.3-1.5
				c0-0.2-0.2-0.5-0.3-0.2c-0.3,1.3-0.9,2.6-1.7,3.7c0.1,0,0.1,0,0.2,0c-0.6-0.4-0.7-1.3-0.9-1.9C16.2,10,16,9.2,15.7,8.5
				c-0.1-0.2-0.2-0.1-0.3,0c-0.6,1.7,0.2,3.5-0.2,5.2c0.1,0,0.2,0,0.3,0c-0.6-1.9-1.2-3.8-1.8-5.8c-0.1-0.3-0.3,0-0.3,0.1
				c-0.1,2.4-0.2,4.7-0.3,7.1c0.1,0,0.2,0,0.3-0.1c-0.7-3.1-1.5-6.3-2.2-9.4c-0.1-0.2-0.3-0.2-0.3,0c-0.5,2.9-0.5,5.8-0.5,8.7
				c0,0.3,0.3,0.3,0.3,0c0-2.9,0-5.7,0.5-8.5c-0.1,0-0.2,0-0.3,0c0.7,3.1,1.5,6.3,2.2,9.4c0.1,0.3,0.3,0.2,0.3-0.1
				c0.1-2.4,0.2-4.7,0.3-7.1c-0.1,0-0.2,0.1-0.3,0.1c0.6,1.9,1.2,3.8,1.8,5.8c0,0.2,0.2,0.1,0.3,0c0.5-1.7-0.3-3.5,0.2-5.2
				c-0.1,0-0.2,0-0.3,0c0.3,0.9,0.6,1.8,0.9,2.7c0.2,0.6,0.4,1.3,1,1.8c0.1,0.1,0.1,0,0.2,0c0.8-1.2,1.4-2.4,1.8-3.8
				c-0.1-0.1-0.2-0.1-0.3-0.2c-0.1,0.5-0.2,1-0.3,1.5c0,0.2,0.2,0.5,0.3,0.2c0.3-0.8,0.5-1.7,0.6-2.6c0-0.2-0.2-0.5-0.3-0.2
				c-0.4,1.5-1,3-1.7,4.4c0.1,0.1,0.2,0.2,0.3,0.2c0.3-1.9,1.5-3.5,1.2-5.4c0-0.2-0.2-0.2-0.3-0.1c-0.7,2.2-1.5,4.3-2.8,6.2
				c0.1,0.1,0.2,0.2,0.3,0.3c0.8-2.2,1.4-4.4,1.8-6.7c0-0.2-0.2-0.5-0.3-0.2C16.8,9,16,11,15.2,13.1c0.1,0,0.2,0.1,0.3,0.1
				c-0.1-2.6,1.4-5,1.8-7.6c0-0.2-0.2-0.5-0.3-0.2c-1.1,2.7-2.2,5.4-3.3,8.1c0.1,0.1,0.2,0.1,0.3,0.2c0.5-2.5,1.4-4.9,2.6-7.1
				C16.6,6.5,16.4,6.1,16.3,6.3L16.3,6.3z"/>
		</g>
	</g>
	<g>
		<g>
			<path d="M10.6,6.5C9.4,7.1,8.2,7.6,7,8C7,8.2,7,8.3,7.1,8.5c2.4-1.3,4.9-2.3,7.6-3c0-0.2-0.1-0.3-0.1-0.5C11.9,5.8,9.3,6.5,7.1,8
				C6.9,8,6.9,8.3,7,8.4c0.5,0.3,1.1,0,1.5-0.2c0.8-0.3,1.7-0.6,2.5-0.9c1.6-0.6,3.2-1.2,4.9-1.7C16.1,5.5,16,5,15.8,5.1
				C13.3,6,10.7,7,8.5,8.4C8.4,8.5,8.3,9,8.6,8.9C11.4,8.3,14,6.6,16.8,6c0-0.2,0-0.3-0.1-0.5c-1.5,0.8-3.1,1.5-4.6,2.3
				c-1.4,0.7-2.8,1.3-3.9,2.3c-0.1,0.1-0.1,0.6,0.1,0.5c3.4-1.6,6.7-3.3,10.3-4.4c0-0.2-0.1-0.3-0.1-0.5c-1.6,0.9-3.3,1.9-4.9,2.8
				c-1.5,0.8-3,1.6-4.3,2.7c-0.1,0.1-0.1,0.6,0.1,0.5c2.9-1.6,5.9-3.3,9.1-4.4c0-0.2-0.1-0.3-0.1-0.5c-2.9,1.7-5.8,3.3-8.6,5
				c0,0.2,0.1,0.3,0.1,0.5c2.6-1.5,5.2-3,8-4.1c0-0.2-0.1-0.3-0.1-0.5c-2.6,1.6-5.1,3.1-7.7,4.7c-0.2,0.1-0.1,0.6,0.1,0.5
				c2.5-1.4,5-2.8,7.7-3.9c0-0.2-0.1-0.3-0.1-0.5c-2.4,1.5-4.8,3-7.2,4.4c-0.2,0.1-0.1,0.6,0.1,0.5c1-0.6,2-1.1,3-1.7
				c0.5-0.3,1-0.5,1.5-0.8c0.5-0.3,1-0.6,1.6-0.5c0-0.2,0-0.3-0.1-0.5c-1.8,1-3.6,2.1-5.2,3.4c-0.1,0.1-0.1,0.6,0.1,0.5
				c1-0.5,1.9-1.1,2.9-1.6c0.9-0.5,1.8-1.1,2.9-1.3c0-0.2-0.1-0.3-0.1-0.5c-1.9,1.3-3.8,2.7-5.6,4c-0.1,0.1-0.1,0.5,0.1,0.5
				c1.9-0.7,3.4-2.2,5.4-2.7c0-0.2-0.1-0.3-0.1-0.5c-1.1,0.9-2.2,1.9-3.3,2.8c-0.1,0.1-0.1,0.4,0.1,0.5c0.1,0,0.2,0,0.3,0.1
				c0.2,0,0.3-0.4,0.1-0.5c-0.1,0-0.2,0-0.3-0.1c0,0.2,0,0.3,0.1,0.5c1.1-0.9,2.2-1.9,3.3-2.8c0.1-0.1,0.1-0.5-0.1-0.5
				c-2,0.5-3.5,2-5.4,2.7c0,0.2,0.1,0.3,0.1,0.5c1.9-1.3,3.8-2.7,5.6-4c0.1-0.1,0.1-0.5-0.1-0.5c-1,0.2-1.9,0.7-2.8,1.2
				c-1,0.6-2.1,1.2-3.1,1.7c0,0.2,0.1,0.3,0.1,0.5c1.7-1.2,3.4-2.3,5.2-3.3C17,10.4,17,10,16.7,10c-1-0.1-2.1,0.7-2.9,1.2
				c-1.1,0.6-2.1,1.2-3.2,1.8c0,0.2,0.1,0.3,0.1,0.5c2.4-1.5,4.8-3,7.2-4.4c0.2-0.1,0.1-0.6-0.1-0.5c-2.7,1.1-5.2,2.5-7.7,3.9
				c0,0.2,0.1,0.3,0.1,0.5c2.6-1.6,5.1-3.1,7.7-4.7C18,8.1,18,7.6,17.8,7.7c-2.8,1.1-5.4,2.6-8,4.1c-0.2,0.1-0.1,0.6,0.1,0.5
				c2.9-1.7,5.8-3.3,8.6-5c0.2-0.1,0.1-0.6-0.1-0.5c-3.2,1.1-6.1,2.7-9.1,4.4c0,0.2,0.1,0.3,0.1,0.5c1.4-1.1,2.9-1.9,4.4-2.8
				c1.6-0.9,3.1-1.8,4.7-2.7c0.2-0.1,0.1-0.6-0.1-0.5C15,6.8,11.6,8.4,8.3,10.1c0,0.2,0.1,0.3,0.1,0.5c1.2-1,2.6-1.7,4-2.3
				c1.5-0.7,3-1.5,4.4-2.2C17,5.9,17,5.5,16.8,5.5c-2.9,0.6-5.4,2.3-8.3,2.9c0,0.2,0,0.3,0.1,0.5c2.2-1.5,4.8-2.4,7.3-3.3
				c0-0.2-0.1-0.3-0.1-0.5c-1.4,0.5-2.8,1-4.2,1.5c-0.7,0.2-1.4,0.5-2,0.7C9.2,7.5,8.8,7.6,8.5,7.8C8.1,7.9,7.5,8.2,7.2,8
				c0,0.2,0,0.3,0,0.5C9.4,7,12,6.2,14.6,5.5C14.8,5.5,14.8,5,14.5,5C11.9,5.7,9.3,6.7,7,8C6.8,8.1,6.8,8.6,7.1,8.5
				C8.3,8.1,9.5,7.6,10.7,7C10.9,6.9,10.8,6.4,10.6,6.5L10.6,6.5z"/>
		</g>
	</g>
	<g>
		<g>
			<path d="M8.5,5.5c-0.1,0-0.2-0.1-0.3-0.1c0,0.2,0,0.3,0,0.5c1.8-0.5,3.7-0.6,5.6-0.1c0-0.2,0-0.3,0.1-0.5C12,4.9,10,4.4,8,4.8
				c-0.2,0-0.2,0.4-0.1,0.5c0.4,0.3,1,0.1,1.5,0.1c0.6,0,1.3-0.1,1.9-0.1c0.2,0,0.2-0.5,0-0.5C10,4.7,8.7,4.4,7.5,4
				c0,0.2,0,0.3,0,0.5c0.4,0,0.9-0.1,1.3-0.2c0.2,0,0.1-0.4,0-0.5C8.1,3.3,7.4,3.8,7,4.5c-0.2,0.3-0.3,0.7-0.1,1
				C7,5.7,7.3,5.8,7.5,5.7c0.2-0.1,0.1-0.6-0.1-0.5c-0.1,0.1-0.2,0.1-0.3,0C7.1,5.1,7.1,5,7.2,4.9c0.1-0.2,0.2-0.4,0.4-0.5
				C7.8,4.1,8.3,4,8.6,4.2c0-0.2,0-0.3,0-0.5C8.3,3.9,7.8,4,7.4,4c-0.2,0-0.2,0.4,0,0.5c1.3,0.5,2.6,0.7,3.9,0.8c0-0.2,0-0.3,0-0.5
				c-0.6,0-1.1,0.1-1.7,0.1c-0.3,0-0.5,0-0.8,0C8.6,4.9,8.3,5,8.1,4.8C8.1,5,8,5.1,8,5.3c2-0.3,3.9,0.1,5.8,0.5
				c0.2,0.1,0.3-0.4,0.1-0.5C12,4.8,10.1,4.8,8.2,5.3C8,5.4,8.1,5.8,8.2,5.8c0.1,0,0.2,0.1,0.3,0.1C8.7,6.1,8.7,5.6,8.5,5.5L8.5,5.5
				z"/>
		</g>
	</g>
	<g>
		<g>
			<path d="M17.5,5.1c0.3-0.5,0.8-1,1.2-1.4c0.1-0.1,0-0.6-0.2-0.4c-0.9,0.7-1.8,1.6-2.5,2.5C16,5.8,16,6.2,16.2,6.1
				c0.3,0,0.5-0.2,0.7-0.3c0.2-0.2,0.4-0.3,0.7-0.5c0.4-0.3,0.9-0.7,1.3-1c-0.1-0.1-0.1-0.3-0.2-0.4c-0.5,0.5-0.9,1-1.4,1.6
				c-0.1,0.1,0,0.5,0.2,0.4c0.6-0.2,1.1-0.6,1.5-1C19,4.8,19.1,4.6,19,4.5c0-0.1-0.1-0.2-0.2-0.1c-0.4,0.5-0.9,0.8-1.5,1
				c0.1,0.1,0.1,0.3,0.2,0.4c0.4-0.5,0.8-1,1.3-1.5c0.1-0.1,0.1-0.2,0.1-0.3c0-0.1-0.1-0.2-0.2-0.1c-0.4,0.3-0.8,0.6-1.2,1
				C17.2,5,17,5.2,16.8,5.3c-0.2,0.1-0.4,0.3-0.6,0.3c0,0.1,0.1,0.3,0.1,0.4c0.7-0.9,1.6-1.7,2.5-2.4c-0.1-0.1-0.1-0.3-0.2-0.4
				c-0.5,0.5-0.9,0.9-1.3,1.5c-0.1,0.1-0.1,0.3,0,0.4C17.4,5.2,17.5,5.2,17.5,5.1L17.5,5.1z"/>
		</g>
	</g>
	<g>
		<g>
			<path d="M15.5,13.2c-0.2,0.1-0.4,0.3-0.5,0.4c0,0-0.1,0.1-0.1,0.2c0,0.1,0,0.1,0,0.2c0,0.1,0.1,0.2,0.2,0.1
				c0.3-0.1,0.5-0.2,0.7-0.4c0,0,0.1-0.1,0.1-0.2c0-0.1,0-0.1,0-0.2c0,0-0.1-0.1-0.1-0.1c0,0-0.1,0-0.1,0c0,0-0.1,0.1-0.1,0.1
				c0,0,0,0,0,0c-0.2,0.1-0.4,0.2-0.6,0.3c0,0.2,0.1,0.3,0.1,0.5c0.1-0.1,0.2-0.2,0.4-0.3c0,0,0,0,0,0c0,0,0.1-0.1,0.1-0.1
				c0.1-0.1,0.1-0.2,0.1-0.3c0-0.1,0-0.1-0.1-0.1C15.6,13.2,15.5,13.2,15.5,13.2L15.5,13.2z"/>
		</g>
	</g>
</g>
<g>
	<g>
		<path d="M34.7,2.5c-1.4,0.9-2.8,1.9-4,3c-0.6,0.5-1.3,1.1-1.9,1.7c-0.3,0.3-0.6,0.6-0.7,1c-0.1,0.5,0,1.2,0.4,1.5
			c0.3,0.3,0.7,0.3,1,0.3c0.5,0.1,0.9,0.2,1.4,0.3c0.9,0.2,1.7,0.4,2.6,0.7c0.9,0.2,1.7,0.5,2.5,0.8c0.4,0.1,0.7,0.3,1.1,0.4
			c0.1,0.1,0.3,0.1,0.4,0.2c0.2,0.1,0.2,0.3,0.1,0c0.2-0.5,0.4-1,0.7-1.4c-3.5,0.7-6.9,1.5-10.4,2.2c-0.5,0.1-0.7,0.6-0.7,1.1
			c0,0.3,0.2,1.2,0.8,1.1c3.5-0.7,6.9-1.5,10.4-2.2c0.6-0.1,0.8-0.9,0.7-1.4c-0.2-0.9-0.8-1.4-1.6-1.8c-0.9-0.4-1.8-0.7-2.6-0.9
			C33.9,8.9,33,8.6,32,8.4c-0.5-0.1-0.9-0.2-1.4-0.3C30.4,8,30.1,8,29.8,7.9c-0.1,0-0.6,0-0.7-0.1c0.1,0.2,0.2,0.4,0.4,0.7
			c0,0,0-0.1,0-0.1c0,0.3,0,0.6-0.1,0.9c0,0,0-0.1,0.1-0.1c-0.1,0.1-0.2,0.3-0.3,0.4c0.8-1,1.9-1.8,2.8-2.6c1-0.8,2-1.6,3.1-2.3
			c0.5-0.3,0.6-0.9,0.5-1.4C35.6,2.9,35.2,2.2,34.7,2.5L34.7,2.5z"/>
	</g>
</g>
<g>
	<g>
		<path d="M42.2,12.8c-0.3-3-0.5-6.1-0.4-9.2C41.5,4,41,4.2,40.6,4.5C41.3,5.3,42,6,42.8,6.7C43.2,7,43.6,7.3,44,7.6
			c0.4,0.3,0.9,0.6,1.4,0.7c1,0.2,2.1-0.8,2.8-1.4c0.4-0.3,0.8-0.7,1.2-1c0.2-0.2,0.4-0.4,0.6-0.6C50,5.1,50.2,5,50.2,4.9
			c0.1-0.2,0.2,0.2-0.1-0.1c-0.1-0.1-0.2-0.3-0.3-0.4c0,0,0,0.1,0,0.1c0-0.2-0.1-0.4-0.1-0.6c0.1,1.6,0,3.1,0.2,4.6
			c0.2,1.6,0.4,3.2,0.7,4.8c0.1,0.4,0.4,1,0.9,0.8c0.5-0.2,0.6-1,0.5-1.4c-0.4-1.9-0.7-3.8-0.8-5.8c-0.1-1,0-2-0.1-3
			c0-0.9-0.7-1.9-1.7-1.2c-0.3,0.2-0.5,0.6-0.8,0.8c-0.3,0.3-0.7,0.7-1.1,1c-0.3,0.3-0.7,0.5-1,0.8c-0.3,0.2-0.8,0.6-1.2,0.5
			c-0.3-0.1-0.7-0.4-1-0.5c-0.4-0.2-0.8-0.5-1.1-0.8c-0.6-0.5-1.2-1.1-1.8-1.8c-0.6-0.8-1.2,0.2-1.2,0.8c-0.1,3.1,0,6.1,0.4,9.2
			c0,0.4,0.2,1.1,0.8,1.1C42,14,42.3,13.2,42.2,12.8L42.2,12.8z"/>
	</g>
</g>
<g>
	<g>
		<path d="M55.5,12.2C55.4,9.1,55.2,6,54.7,3c-0.1-0.4-0.4-1-0.9-0.8c-0.5,0.2-0.5,0.9-0.5,1.4c0.4,2.9,0.6,5.8,0.7,8.6
			c0,0.4,0.2,1.1,0.8,1.1C55.4,13.3,55.5,12.6,55.5,12.2L55.5,12.2z"/>
	</g>
</g>
<g>
	<g>
		<path d="M58.4,3.5c-1.2,1-2.4,1.9-3.7,2.9c-0.2,0.1-0.3,0.5-0.3,0.7c0,0.3,0,0.6,0.1,0.9c0.2,0.4,0.6,0.7,1,0.4
			c1.2-1,2.4-1.9,3.7-2.9c0.2-0.1,0.3-0.5,0.3-0.7c0-0.3,0-0.6-0.1-0.9C59.2,3.4,58.8,3.2,58.4,3.5L58.4,3.5z"/>
	</g>
</g>
<g>
	<g>
		<path d="M55,8.9c2.4,0.9,4.7,2.1,6.8,3.6c1,0.7,1.4-1.4,0.7-1.9c-2.2-1.6-4.6-2.8-7.2-3.8C54.4,6.3,54.1,8.5,55,8.9L55,8.9z"/>
	</g>
</g>
<g>
	<g>
		<path d="M63.8,4.8c1.3,0.9,2.6,1.9,3.7,3c0.4,0.4,0.9,0,1-0.4c0.2-0.5,0.1-1.1-0.3-1.5c-1.1-1.1-2.4-2.1-3.7-3
			c-0.2-0.1-0.4-0.2-0.6-0.1c-0.2,0.1-0.4,0.3-0.4,0.5c-0.1,0.3-0.1,0.6-0.1,0.9C63.5,4.4,63.6,4.7,63.8,4.8L63.8,4.8z"/>
	</g>
</g>
<g>
	<g>
		<path d="M73,2.3c-1.7,1.3-3.4,2.5-5.1,3.7c-0.4,0.3-0.6,0.9-0.5,1.4c0.1,0.2,0.2,0.5,0.4,0.7c0.1,0.1,0.4,0.2,0.6,0.1
			c1.9-1.2,3.7-2.5,5.4-3.9C74.5,3.6,74,1.5,73,2.3L73,2.3z"/>
	</g>
</g>
<g>
	<g>
		<path d="M68.8,8.9c0-0.3,0.1-0.5,0.1-0.8c0-0.1,0-0.3,0-0.4c0-0.1,0-0.3-0.1-0.4c0-0.1-0.1-0.2-0.2-0.3c-0.1-0.1-0.1-0.2-0.3-0.2
			c-0.1,0-0.1,0-0.2,0c-0.1,0-0.3,0.1-0.4,0.2c0,0.1-0.1,0.1-0.1,0.2c-0.1,0.2-0.2,0.3-0.2,0.5c0,0.3-0.1,0.5-0.1,0.8
			c0,0.1,0,0.3,0,0.4c0,0.1,0,0.3,0.1,0.4c0,0.1,0.1,0.2,0.2,0.3c0.1,0.1,0.1,0.2,0.3,0.2c0.1,0,0.1,0,0.2,0c0.1,0,0.3-0.1,0.4-0.2
			c0-0.1,0.1-0.1,0.1-0.2C68.8,9.3,68.8,9.1,68.8,8.9L68.8,8.9z"/>
	</g>
</g>
<g>
	<g>
		<path d="M67.5,7c-0.3,2.2-0.2,4.5,0.1,6.7c0.1,0.4,0.5,1,0.9,0.8c0.5-0.2,0.5-0.9,0.5-1.4c0-0.1,0-0.2,0-0.4c0-0.1,0-0.2,0-0.1
			c0-0.1,0-0.1,0-0.2c0-0.2,0-0.5-0.1-0.7c0-0.5-0.1-1-0.1-1.5c0-1.1,0-1.8,0.1-2.8c0.1-0.5,0-1.2-0.5-1.4C67.9,6,67.6,6.6,67.5,7
			L67.5,7z"/>
	</g>
</g>
</svg>
