<?xml version="1.0" encoding="utf-8"?>
<!-- Generator: Adobe Illustrator 28.0.0, SVG Export Plug-In . SVG Version: 6.00 Build 0)  -->
<svg version="1.1" id="Capa_1" xmlns="http://www.w3.org/2000/svg" xmlns:xlink="http://www.w3.org/1999/xlink" x="0px" y="0px"
	 viewBox="0 0 32 32" style="enable-background:new 0 0 32 32;" xml:space="preserve">
<g>
	<g>
		<path d="M8.2,5.9c-3.8,4.1-6.3,10.3-4.7,15.9c1.8,5.8,8.2,8.6,13.9,8.2c6.1-0.5,11.8-4.4,13.1-10.6c1.2-5.9-1.4-11.5-6.3-14.9
			C18.7,0.7,10.4,0.6,6,6.3C5.9,6.4,6,6.9,6.1,6.8c4-3.4,9.1-4.8,14.2-3c5.1,1.8,9.9,6.6,10,12.3c0.2,11.4-16.4,16.6-24.2,9.2
			C0.7,20.1,3.9,11.1,8.3,6.2C8.3,6.2,8.3,5.9,8.2,5.9L8.2,5.9z"/>
	</g>
</g>
<g>
	<g>
		<path d="M16.7,7.1c-0.3,2.1-0.4,4.2-0.5,6.3c-0.1,2,0,4.2-0.5,6.2c-0.2,0.9-0.7,2-1.7,2.3c-1,0.3-1.7-0.6-2.2-1.3
			c-0.5-0.7-1.1-1.7-0.6-2.5c0.5-0.7,1.2-1.1,2.1-0.9c0.4,0.1,0.5-1.5,0-1.7c-2.4-0.7-3.3,2.5-2.9,4.2c0.3,1.7,2.2,5.1,4.3,3.6
			c2.1-1.4,1.9-4.9,2-7.1c0.1-3,0.3-6,0.2-9.1C16.8,7,16.7,6.8,16.7,7.1L16.7,7.1z"/>
	</g>
</g>
<g>
	<g>
		<path d="M17,7.8c0.3,0.1,0.5,0.1,0.8,0.2c0.1,0,0.3,0,0.4,0.1c0.2,0,0.3,0,0.4-0.1c-0.1-0.3-0.1-0.5-0.2-0.8c0,0,0,0.1,0,0.1
			c0,0,0-0.1,0.1-0.1c0,0-0.1,0.1-0.1,0.1c0,0,0.1,0,0.1-0.1C18,7.1,18,7.7,18,8c-0.1,0.4-0.1,0.8-0.2,1.2c-0.1,0.4-0.1,0.8-0.2,1.2
			c-0.1,0.5-0.2,1-0.1,1.4c0,0.1,0.2,0.7,0.4,0.4c0.1-0.2,0.1-0.5,0.2-0.7c0-0.2,0-0.4,0.1-0.5c0-0.4,0.1-0.7,0.1-1.1
			c0-0.4,0.1-0.7,0.1-1.1c0-0.2,0-0.4,0.1-0.5c0-0.1,0-0.1,0-0.2c0-0.1,0-0.1,0-0.2c0-0.2,0-0.2,0-0.1c0,0-0.1,0-0.1,0.1
			c0,0,0,0,0,0c0.2,0,0.2-0.3,0.2-0.4c0-0.2,0-0.4-0.1-0.5c-0.1-0.1-0.2-0.2-0.4-0.2c-0.1,0-0.3,0-0.4,0c-0.3,0-0.5,0-0.8,0
			C16.6,6.7,16.7,7.7,17,7.8L17,7.8z"/>
	</g>
</g>
<g>
	<g>
		<path d="M17.3,7.6C17.3,7.5,17.3,7.5,17.3,7.6c0,0.1,0,0.2-0.1,0.2c0,0.1,0,0.2-0.1,0.3c0,0.2-0.1,0.4-0.1,0.7
			c-0.1,0.5-0.1,1-0.2,1.4c-0.1,0.4-0.1,0.9-0.1,1.3c0,0.4,0,1.1,0.4,1.4c0.1,0.1,0.2-0.2,0.3-0.2c0.1-0.2,0-0.5,0-0.7
			c0-0.1,0-0.2-0.1-0.3c0,0,0-0.1,0-0.1c0,0.1,0,0,0,0c0-0.1,0-0.1,0-0.2c0-0.4,0.1-0.7,0.1-1.1c0.1-0.8,0.2-1.6,0.2-2.4
			c0-0.1,0-0.4-0.1-0.5C17.3,7.3,17.3,7.5,17.3,7.6L17.3,7.6z"/>
	</g>
</g>
<g>
	<g>
		<path d="M17.7,7.5c-0.1,0.7-0.2,1.4-0.3,2.1c-0.1,0.7-0.2,1.3-0.2,2c0,1.1,0.4,2.5,1.5,2.9c0.4,0.2,0.9,0.1,1.3-0.1
			c0.2-0.1,0.4-0.3,0.4-0.6c0-0.2,0.1-1.1-0.4-0.9c-0.1,0-0.2,0.2-0.3,0.2c-0.1,0.1-0.2,0.1-0.3,0.1c-0.2,0-0.5,0-0.7,0
			c-0.5-0.1-0.8-0.6-1-1c-0.2-0.6-0.1-1.3,0-1.9C18,9.4,18,8.7,18.1,7.9c0-0.2,0-0.5-0.1-0.6C17.8,7.1,17.7,7.3,17.7,7.5L17.7,7.5z"
			/>
	</g>
</g>
<g>
	<g>
		<path d="M17.7,11.9c0.4,0.9,1.4,1.6,2.4,1.7c0.5,0.1,1,0,1.5-0.2c0.5-0.2,0.8-0.5,1.2-0.9c0.3-0.3,0.2-0.9,0-1.2c0,0,0,0,0,0
			c0-0.1-0.1-0.1-0.1-0.1c-0.2,0-0.2,0.3-0.3,0.4c0,0.2,0,0.5,0,0.7c0,0.1,0.1,0.3,0.2,0.2c0,0,0,0-0.1,0c0-0.2-0.1-0.4-0.1-0.6
			c0,0,0,0,0,0c0-0.2,0.1-0.4,0.1-0.6c-0.4,0.9-1.5,1.4-2.5,1.3c-1,0-1.8-0.6-2.3-1.4c-0.1-0.2-0.2,0.1-0.2,0.2
			C17.6,11.5,17.7,11.7,17.7,11.9L17.7,11.9z"/>
	</g>
</g>
<g>
	<g>
		<path d="M18.3,13.9c0.6,0.7,1.6,1,2.5,0.9c0.9-0.1,1.9-0.7,2.5-1.4c0.2-0.2,0.2-0.5,0.1-0.8c0-0.1-0.1-0.6-0.3-0.4
			c-0.4,0.3-0.7,0.7-1.1,1c-0.4,0.3-0.9,0.5-1.3,0.6c-0.9,0.2-1.8,0.1-2.5-0.5c-0.1-0.1-0.1,0.2-0.1,0.2
			C18.2,13.7,18.2,13.9,18.3,13.9L18.3,13.9z"/>
	</g>
</g>
<g>
	<g>
		<path d="M17.7,8.3c-0.2,2.4-0.5,4.7-0.7,7.1c-0.1,1.1-0.1,2.2-0.3,3.3c-0.1,0.8-0.3,1.7-0.9,2.4c-1.3,1.5-3.6,0.6-4.7-0.8
			c-0.6-0.8-0.9-1.9-0.5-2.9c0.2-0.4,0.5-0.8,0.8-1.1c0.2-0.2,1-0.9,1.3-0.7c-0.1-0.2-0.1-0.4-0.2-0.5c0,0,0,0.1,0,0.1
			c0-0.3,0.1-0.6,0.1-0.9c0,0,0,0,0-0.1c-0.3-0.1-0.4,1.4,0,1.5c0,0,0,0,0.1,0c0,0,0.1,0,0.1,0c0.3-0.3,0.3-0.7,0.2-1.1
			c0-0.1-0.1-0.5-0.2-0.5c-0.6-0.3-1.6,0.6-2,1c-0.6,0.7-1,1.5-1.1,2.4c-0.3,1.9,0.4,4,1.9,5.2c1.4,1.1,3.3,1.2,4.5-0.3
			c1.1-1.4,1.1-3.5,1.2-5.2c0.2-2.9,0.4-5.8,0.5-8.7C18,8.2,17.8,7.8,17.7,8.3L17.7,8.3z"/>
	</g>
</g>
<g>
	<g>
		<path d="M11.1,15.2c-1.2,0.1-1.7,1.1-1.9,2.1c-0.2,1.3-0.4,2.7-0.1,4c0.3,1.1,0.9,2,2,2.3c0.5,0.2,1.1,0.3,1.7,0.3
			c0.6,0,1-0.4,1.1-1c0-0.1,0.1-1.2-0.3-1.1c-0.1,0-0.2,0.1-0.3,0.2c-0.2,0.1-0.4,0.1-0.6,0.2c-0.4,0-0.9-0.1-1.3-0.2
			c-0.8-0.2-1.5-0.6-1.8-1.4c-0.3-0.8-0.1-1.8,0-2.6c0.1-0.9,0.5-1.8,1.4-2.1C11.3,15.9,11.3,15.2,11.1,15.2L11.1,15.2z"/>
	</g>
</g>
<g>
	<g>
		<path d="M8.7,4.3C7.6,4.7,6.8,5.2,6.1,6.2C5.3,7.3,4.7,8.5,4.2,9.8c-0.5,1.3-0.9,2.6-1.2,4c-0.3,1.3-0.5,2.7-0.3,4
			c0,0.3,0.2,0.3,0.2,0c0.1-3.2,1.2-6.6,3.2-9.1c0.9-1.1,1.9-2.1,3.1-2.9c0.6-0.4,1.2-0.7,1.8-1c0.7-0.3,1.5-0.4,2.1-0.8
			C13.4,3.8,13.4,3,13.1,3c-0.7-0.1-1.5,0.3-2.1,0.6c-0.7,0.3-1.4,0.7-2,1.1C7.7,5.6,6.7,6.7,5.8,8c-2,2.9-2.7,6.2-3.1,9.7
			c0.1,0.1,0.2,0.2,0.2,0.2c0.2-1.2,0.2-2.4,0.5-3.6c0.2-1.2,0.6-2.5,1.1-3.6c0.8-2.1,2.1-4.7,4.2-5.7C8.9,4.9,8.8,4.3,8.7,4.3
			L8.7,4.3z"/>
	</g>
</g>
<g>
	<g>
		<path d="M5.3,6.5c-2.7,3.7-4,8.4-3.1,12.9c0.4,1.9,1.2,3.7,2.4,5.3c0.6,0.8,1.4,1.5,2.2,2.1c0.6,0.4,1.8,1.3,2.5,0.7
			c0.2-0.2,0.2-0.6,0.1-0.9c-0.4-0.7-1.1-0.9-1.8-1.3c-0.7-0.5-1.4-1-2-1.6c-1.2-1.2-2.1-2.8-2.5-4.4c-1.2-4.1,0.3-8.6,2.4-12.2
			C5.5,6.9,5.5,6.2,5.3,6.5L5.3,6.5z"/>
	</g>
</g>
<g>
	<g>
		<path d="M7.7,26.6c0.4,1.5,1.5,2.5,2.9,2.9c1.6,0.5,3.5,0.6,5.2,0.6c0.8,0,2.1,0.2,2.6-0.6c0.4-0.7,0-1.5-0.8-1.5c-1,0-2,0.1-3,0
			c-1,0-1.9-0.1-2.9-0.2c-0.7-0.1-1.4-0.2-2-0.4c-0.3-0.2-0.7-0.4-1-0.6c-0.3-0.2-0.5-0.5-0.9-0.7C7.6,26,7.7,26.5,7.7,26.6
			L7.7,26.6z"/>
	</g>
</g>
</svg>
